<svg id="SvgjsSvg1017" xmlns="http://www.w3.org/2000/svg" version="1.1" xmlns:xlink="http://www.w3.org/1999/xlink" xmlns:svgjs="http://svgjs.com/svgjs" width="1603" height="672"><defs id="SvgjsDefs1018"></defs><path id="SvgjsPath1019" d="M-0.45805 5087.08L-0.45805 5758.83L1601.01 5758.83L1601.01 5087.08ZM1075.3 5111.42L1576.6799999999998 5111.42L1576.6799999999998 5306.13L1544.6699999999998 5306.13L1561.5399999999997 5288.29L1541.3499999999997 5270.34C1545.2399999999998 5263.14 1548.4499999999996 5255.39 1550.9799999999998 5247.1L1527.4499999999998 5232.05C1526.12 5238.72 1524.0099999999998 5245.12 1521.1 5251.2300000000005C1517.27 5247.42 1511.5 5241.1900000000005 1503.78 5232.540000000001C1521.66 5220.710000000001 1530.26 5208.460000000001 1529.58 5195.810000000001C1529.04 5185.740000000002 1524.78 5178.100000000001 1516.8 5172.9000000000015C1508.81 5167.700000000002 1499.3999999999999 5165.390000000001 1488.55 5165.970000000001C1477.71 5166.550000000001 1468.47 5169.960000000001 1460.84 5176.200000000001C1453.22 5182.43 1449.6899999999998 5191.040000000001 1450.29 5202.010000000001C1450.57 5207.310000000001 1451.79 5211.870000000001 1453.93 5215.700000000001C1456.0800000000002 5219.540000000001 1459.43 5223.920000000001 1463.96 5228.860000000001C1445.57 5240.85 1436.76 5253.950000000001 1437.52 5268.150000000001C1438.2 5280.8 1443.32 5290.530000000001 1452.8799999999999 5297.330000000001C1459.77 5302.2300000000005 1467.8899999999999 5305.160000000001 1477.2299999999998 5306.130000000001L1404.0599999999997 5306.130000000001L1422.5199999999998 5297.340000000001L1368.1799999999998 5183.260000000001L1347.2799999999997 5193.220000000001L1401.0599999999997 5306.130000000001L1375.4799999999998 5306.130000000001L1382.4999999999998 5303.880000000001L1345.0199999999998 5187.250000000001L1333.9999999999998 5190.790000000001L1340.3199999999997 5210.450000000001L1125.0299999999997 5210.450000000001L1125.0299999999997 5229.110000000001L1341.1999999999998 5229.110000000001L1341.1999999999998 5213.210000000001L1371.0599999999997 5306.130000000001L1359.8899999999996 5306.130000000001L1359.8899999999996 5277.080000000001L1095.8999999999996 5277.080000000001L1095.8999999999996 5306.130000000001L1075.2999999999997 5306.130000000001ZM1075.3 5330.47L1576.6799999999998 5330.47L1576.6799999999998 5391.38L1561.2999999999997 5389.95L1548.7399999999998 5524.49L1556.0699999999997 5525.179999999999L1539.5399999999997 5525.179999999999L1563.0999999999997 5374.32L1548.7999999999997 5372.09L1525.1499999999996 5523.4800000000005L1536.0199999999995 5525.18L1503.3999999999996 5525.18L1547.9899999999996 5375.490000000001L1520.2399999999996 5367.22L1475.1199999999997 5518.6900000000005L1496.8799999999997 5525.18L1241.1999999999996 5525.18L1262.9599999999996 5518.6900000000005L1231.1999999999996 5412.1L1304.7399999999996 5524.92L1317.8799999999997 5516.35L1244.0899999999997 5403.150000000001L1231.0699999999997 5411.64L1217.8299999999997 5367.22L1190.0799999999997 5375.490000000001L1234.6699999999996 5525.18L1202.0499999999997 5525.18L1212.9199999999996 5523.4800000000005L1189.2799999999995 5372.09L1174.9699999999996 5374.32L1198.5299999999995 5525.179999999999L1181.9999999999995 5525.179999999999L1189.3399999999995 5524.49L1176.7699999999995 5389.95L1161.1499999999996 5391.41L1173.6499999999996 5525.18L1075.2999999999997 5525.18ZM525.253 5306.13L459.53900000000004 5306.13L392.1890000000001 5150.25L358.5150000000001 5150.25L291.1660000000001 5306.13L269.73700000000014 5306.13L286.4900000000001 5301.14L256.1510000000001 5199.280000000001L237.49000000000012 5204.840000000001L267.6610000000001 5306.130000000001L218.18200000000013 5306.130000000001L218.18200000000013 5217.130000000001L226.48600000000013 5306.020000000001L236.98700000000014 5305.040000000002L228.53600000000014 5214.5700000000015L218.18200000000013 5215.530000000002L218.18200000000013 5182.810000000001L183.29700000000014 5182.810000000001L183.29700000000014 5306.130000000001L181.67500000000013 5306.130000000001L181.67500000000013 5193.770000000001L173.56200000000013 5193.770000000001L173.56200000000013 5306.130000000001L171.9400000000001 5306.130000000001L171.9400000000001 5144.680000000001L141.92300000000012 5144.680000000001L141.92300000000012 5306.130000000001L140.30000000000013 5306.130000000001L140.30000000000013 5167.810000000001L121.64000000000013 5167.810000000001L121.64000000000013 5306.130000000001L102.87900000000013 5306.130000000001L119.00200000000014 5302.480000000001L92.15880000000014 5183.790000000002L73.20020000000014 5188.080000000002L66.73880000000014 5127.840000000002L23.88030000000014 5132.440000000002L23.88030000000014 5111.420000000002L525.2530000000002 5111.420000000002ZM525.253 5525.18L23.880300000000034 5525.18L23.880300000000034 5330.47L525.253 5330.47ZM1050.96 5306.13L963.033 5306.13L1015.88 5128.71L983.162 5118.97L929.9630000000001 5297.56L958.734 5306.13L928.0550000000001 5306.13L928.0550000000001 5203.91L934.1400000000001 5203.91L934.1400000000001 5184.44L802.7120000000001 5184.44L802.7120000000001 5203.91L810.0130000000001 5203.91L810.0130000000001 5306.13L746.0230000000001 5306.13L746.0230000000001 5167.400000000001L711.1380000000001 5167.400000000001L711.1380000000001 5306.13L709.5150000000001 5306.13L709.5150000000001 5137.3L701.4030000000001 5137.3L701.4030000000001 5306.13L699.7810000000002 5306.13L699.7810000000002 5155.45L669.7630000000001 5155.45L669.7630000000001 5306.13L668.1410000000002 5306.13L668.1410000000002 5146.86L649.4810000000002 5146.86L649.4810000000002 5306.13L647.7560000000002 5306.13L647.7560000000002 5163.81L612.8710000000002 5163.81L612.8710000000002 5306.13L611.2490000000003 5306.13L611.2490000000003 5173.84L603.1360000000002 5173.84L603.1360000000002 5306.13L601.5140000000002 5306.13L601.5140000000002 5120.35L571.4970000000002 5120.35L571.4970000000002 5306.13L569.8740000000001 5306.13L569.8740000000001 5143.28L551.2140000000002 5143.28L551.2140000000002 5306.13L549.5920000000002 5306.13L549.5920000000002 5111.42L1050.9600000000003 5111.42ZM1050.96 5525.18L549.5920000000001 5525.18L549.5920000000001 5330.47L1050.96 5330.47ZM1503.04 5744.22L1547.99 5593.31L1520.24 5585.05L1475.1200000000001 5736.52L1500.96 5744.22L1439.2 5744.22L1455.95 5739.2300000000005L1425.6100000000001 5637.38L1406.95 5642.9400000000005L1437.1200000000001 5744.22L1387.65 5744.22L1387.65 5655.22L1395.95 5744.110000000001L1406.45 5743.130000000001L1398 5652.660000000001L1387.65 5653.630000000001L1387.65 5620.910000000001L1352.76 5620.910000000001L1352.76 5744.220000000001L1351.14 5744.220000000001L1351.14 5631.8600000000015L1343.0300000000002 5631.8600000000015L1343.0300000000002 5744.220000000001L1341.4 5744.220000000001L1341.4 5582.780000000002L1311.39 5582.780000000002L1311.39 5744.220000000001L1309.76 5744.220000000001L1309.76 5605.9000000000015L1291.1 5605.9000000000015L1291.1 5744.220000000001L1272.34 5744.220000000001L1288.47 5740.580000000001L1261.6200000000001 5621.880000000001L1242.66 5626.170000000001L1236.2 5565.930000000001L1192.64 5570.600000000001L1211.2700000000002 5744.220000000001L1075.3000000000002 5744.220000000001L1075.3000000000002 5549.520000000001L1576.6800000000003 5549.520000000001L1576.6800000000003 5609.210000000001L1561.3000000000002 5607.780000000001L1548.7400000000002 5742.320000000001L1564.3500000000001 5743.780000000001L1576.68 5611.880000000001L1576.68 5744.220000000001ZM525.253 5744.22L451.0210000000001 5744.22L451.0210000000001 5682.490000000001L468.4220000000001 5682.490000000001L468.4220000000001 5646.300000000001L477.79300000000006 5646.300000000001L477.79300000000006 5632.270000000001L454.67100000000005 5632.270000000001L454.67100000000005 5599.410000000002L334.196 5599.410000000002L334.196 5632.270000000001L290.38700000000006 5632.270000000001L290.38700000000006 5646.300000000001L298.41900000000004 5646.300000000001L298.41900000000004 5682.490000000001L319.593 5682.490000000001L319.593 5744.22L219.5 5744.22L219.5 5625.570000000001L184.615 5625.570000000001L184.615 5744.22L183.399 5744.22L183.399 5603.67L175.286 5603.67L175.286 5744.22L173.664 5744.22L173.664 5595.150000000001L143.647 5595.150000000001L143.647 5744.22L142.024 5744.22L142.024 5611.780000000001L123.364 5611.780000000001L123.364 5744.22L121.64 5744.22L121.64 5601.84L86.75450000000001 5601.84L86.75450000000001 5744.22L85.1324 5744.22L85.1324 5634.7L77.0198 5634.7L77.0198 5744.22L75.3976 5744.22L75.3976 5622.13L45.3803 5622.13L45.3803 5744.22L43.7575 5744.22L43.7575 5608.740000000001L25.0978 5608.740000000001L25.0978 5744.22L23.8803 5744.22L23.8803 5549.52L525.253 5549.52ZM1050.96 5744.22L549.5920000000001 5744.22L549.5920000000001 5549.52L1050.96 5549.52ZM287.902 5375.95L301.787 5524.59L319.66499999999996 5522.92L305.277 5368.9L287.399 5370.57L287.845 5375.34L83.48410000000004 5375.34L83.48410000000004 5405.360000000001L287.90200000000004 5405.360000000001ZM1416.87 5524.59C1453.32 5524.59 1482.87 5495.04 1482.87 5458.59C1482.87 5422.14 1453.32 5392.59 1416.87 5392.59C1380.4199999999998 5392.59 1350.86 5422.14 1350.86 5458.59C1350.86 5495.04 1380.4199999999998 5524.59 1416.87 5524.59ZM403.94 5515.06L352.288 5341.660000000001L320.521 5351.130000000001L372.172 5524.530000000001ZM1416.87 5401.76C1448.2099999999998 5401.76 1473.6999999999998 5427.25 1473.6999999999998 5458.59C1473.6999999999998 5489.93 1448.2099999999998 5515.43 1416.87 5515.43C1385.53 5515.43 1360.03 5489.93 1360.03 5458.59C1360.03 5427.25 1385.53 5401.76 1416.87 5401.76ZM1005.82 5305.84L1033.7 5127.34L1016.83 5124.71L988.9580000000001 5303.2ZM346.66 5520.54L319.595 5347.24L303.221 5349.79L330.285 5523.1ZM283 5504L283 5474L38 5474L38 5504ZM1320 5266L1320 5231L1117 5231L1117 5266ZM801.444 5303.33L776.204 5141.71L760.933 5144.1L786.173 5305.71ZM1324 5209L1324 5179L1103 5179L1103 5209ZM246 5462L246 5427L58 5427L58 5462ZM73.2305 5188.36L99.8638 5306.13L47.6413 5306.13L85.42779999999999 5302.08ZM1242.69 5626.45L1269.3300000000002 5744.22L1217.1100000000001 5744.22L1254.89 5740.17ZM1548.8 5589.92L1525.1499999999999 5741.31L1539.4599999999998 5743.54L1563.1 5592.15ZM1016.76 5304.39L1035.18 5306.110000000001L1049.99 5147.490000000001L1031.58 5145.760000000001ZM266 5426L266 5407L36 5407L36 5426ZM776.269 5304.41L762.852 5160.78L746.179 5162.34L759.596 5305.97ZM278 5524L278 5505L68 5505L68 5524ZM408.024 5272.46L422.51800000000003 5306.13L328.18500000000006 5306.13L342.68100000000004 5272.46ZM23.8803 5139.05L41.8015 5306.13L23.8803 5306.13ZM1350 5158L1350 5144L1155 5144L1155 5158ZM252.844 5304.36L236.946 5202.5599999999995L227.328 5204.0599999999995L243.226 5305.86ZM1447.49 5480.91L1421.44 5456.61L1421.56 5433.86L1412.3899999999999 5433.82L1412.2499999999998 5460.57L1441.2399999999998 5487.61ZM355.839 5241.9L375.464 5196.629999999999L394.866 5241.9ZM1309 5177L1309 5169L1092 5169L1092 5177ZM1345 5275L1345 5267L1131 5267L1131 5275ZM1576.68 5394.05L1576.68 5525.18L1564.43 5525.18ZM270 5472L270 5464L71 5464L71 5472ZM1480.27 5246.82C1487.55 5254.58 1496.17 5263.19 1506.1299999999999 5272.62C1499.59 5278.67 1493.35 5281.849999999999 1487.4099999999999 5282.17C1481.4699999999998 5282.49 1476.55 5281.27 1472.6499999999999 5278.5C1468.7399999999998 5275.73 1466.6699999999998 5272.09 1466.4299999999998 5267.57C1466.0499999999997 5260.469999999999 1470.6599999999999 5253.549999999999 1480.2699999999998 5246.82ZM1291 5167L1291 5159L1120 5159L1120 5167ZM1332 5142L1332 5134L1162 5134L1162 5142ZM274 5374L274 5366L115 5366L115 5374ZM261 5364L261 5356L136 5356L136 5364ZM1525.58 5291.19L1541.84 5306.129999999999L1491.8 5306.129999999999C1504.72 5304.819999999999 1515.98 5299.849999999999 1525.58 5291.19ZM1482.29 5192.23C1484.44 5190.11 1486.94 5188.969999999999 1489.78 5188.82C1492.62 5188.67 1495.25 5189.5 1497.68 5191.3099999999995C1500.1100000000001 5193.12 1501.42 5195.9 1501.6200000000001 5199.639999999999C1501.8700000000001 5204.16 1497.2900000000002 5209.259999999999 1487.88 5214.95C1482.3700000000001 5208.7699999999995 1479.5200000000002 5203.97 1479.3400000000001 5200.55C1479.16 5197.13 1480.14 5194.360000000001 1482.2900000000002 5192.2300000000005ZM1384 5463L1384 5454L1367 5454L1367 5463ZM1412.28 5491.59L1412.28 5508.09L1421.45 5508.09L1421.45 5491.59ZM1421.45 5425.59L1421.45 5409.09L1412.28 5409.09L1412.28 5425.59ZM1466 5463L1466 5454L1450 5454L1450 5463ZM1396.79 5642.15L1412.69 5743.95L1422.31 5742.45L1406.4099999999999 5640.65Z " fill="#d82149" transform="matrix(1,0,0,1,1,-5087)"></path></svg>