<svg id="SvgjsSvg1013" xmlns="http://www.w3.org/2000/svg" version="1.1" xmlns:xlink="http://www.w3.org/1999/xlink" xmlns:svgjs="http://svgjs.com/svgjs"><defs id="SvgjsDefs1014"></defs><path id="SvgjsPath1015" d="M780 1330C782.761 1330 785 1332.24 785 1335C785 1337.76 782.761 1340 780 1340C777.238 1340 775 1337.76 775 1335C775 1332.24 777.238 1330 780 1330Z " fill="#ea2c4e" transform="matrix(1,0,0,1,-300,-1020)"></path><path id="SvgjsPath1016" d="M800 1330C802.761 1330 805 1332.24 805 1335C805 1337.76 802.761 1340 800 1340C797.238 1340 795 1337.76 795 1335C795 1332.24 797.238 1330 800 1330Z " fill="#e6e6e6" transform="matrix(1,0,0,1,-300,-1020)"></path><path id="SvgjsPath1017" d="M820 1330C822.761 1330 825 1332.24 825 1335C825 1337.76 822.761 1340 820 1340C817.238 1340 815 1337.76 815 1335C815 1332.24 817.238 1330 820 1330Z " fill="#e6e6e6" transform="matrix(1,0,0,1,-300,-1020)"></path><path id="SvgjsPath1018" d="M327 1300L327 1020L1272 1020L1272 1300Z " fill="#f3f3f3" transform="matrix(1,0,0,1,-300,-1020)"></path><path id="SvgjsPath1019" d="M300.05 1157.5L310.919 1146.63L310.919 1126.15L312.95 1126.15L312.95 1147.47L302.923 1157.5L312.95 1167.53L312.95 1188.84L310.919 1188.84L310.919 1168.37Z " fill="#e91f43" transform="matrix(1,0,0,1,-300,-1020)"></path><path id="SvgjsPath1020" d="M1300.95 1158.5L1290.0800000000002 1147.63L1290.0800000000002 1127.15L1288.0500000000002 1127.15L1288.0500000000002 1148.47L1298.0800000000002 1158.5L1288.0500000000002 1168.53L1288.0500000000002 1189.84L1290.0800000000002 1189.84L1290.0800000000002 1169.37Z " fill="#e91f43" transform="matrix(1,0,0,1,-300,-1020)"></path></svg>