<?xml version="1.0" encoding="UTF-8" standalone="no"?>
<svg
   xmlns:dc="http://purl.org/dc/elements/1.1/"
   xmlns:cc="http://creativecommons.org/ns#"
   xmlns:rdf="http://www.w3.org/1999/02/22-rdf-syntax-ns#"
   xmlns:svg="http://www.w3.org/2000/svg"
   xmlns="http://www.w3.org/2000/svg"
   viewBox="0 0 2000 975"
   height="975"
   width="2000"
   xml:space="preserve"
   version="1.1"
   id="svg2"><metadata
     id="metadata8"><rdf:RDF><cc:Work
         rdf:about=""><dc:format>image/svg+xml</dc:format><dc:type
           rdf:resource="http://purl.org/dc/dcmitype/StillImage" /><dc:title></dc:title></cc:Work></rdf:RDF></metadata><defs
     id="defs6"><clipPath
       id="clipPath126"
       clipPathUnits="userSpaceOnUse"><path
         id="path128"
         d="M 0,780 1600,780 1600,0 0,0 0,780 Z" /></clipPath><clipPath
       id="clipPath266"
       clipPathUnits="userSpaceOnUse"><path
         id="path268"
         d="M 0,780 1600,780 1600,0 0,0 0,780 Z" /></clipPath><clipPath
       id="clipPath338"
       clipPathUnits="userSpaceOnUse"><path
         id="path340"
         d="M 0,780 1600,780 1600,0 0,0 0,780 Z" /></clipPath><clipPath
       id="clipPath384"
       clipPathUnits="userSpaceOnUse"><path
         id="path386"
         d="M 0,780 1600,780 1600,0 0,0 0,780 Z" /></clipPath><clipPath
       id="clipPath440"
       clipPathUnits="userSpaceOnUse"><path
         id="path442"
         d="M 0,780 1600,780 1600,0 0,0 0,780 Z" /></clipPath><clipPath
       id="clipPath488"
       clipPathUnits="userSpaceOnUse"><path
         id="path490"
         d="m 185.532,288.481 15.743,0 0,-2.029 -15.743,0 0,2.029 z" /></clipPath><clipPath
       id="clipPath536"
       clipPathUnits="userSpaceOnUse"><path
         id="path538"
         d="m 148.422,280.337 14.171,0 0,-8.39 -14.171,0 0,8.39 z" /></clipPath><clipPath
       id="clipPath584"
       clipPathUnits="userSpaceOnUse"><path
         id="path586"
         d="m 137.768,344.19 15.689,0 0,-3.045 -15.689,0 0,3.045 z" /></clipPath><clipPath
       id="clipPath628"
       clipPathUnits="userSpaceOnUse"><path
         id="path630"
         d="m 211.408,333.733 15.715,0 0,-2.7 -15.715,0 0,2.7 z" /></clipPath><clipPath
       id="clipPath660"
       clipPathUnits="userSpaceOnUse"><path
         id="path662"
         d="m 211.663,335.902 15.715,0 0,-2.701 -15.715,0 0,2.701 z" /></clipPath><clipPath
       id="clipPath700"
       clipPathUnits="userSpaceOnUse"><path
         id="path702"
         d="m 161.245,258.359 15.556,0 0,-4.14 -15.556,0 0,4.14 z" /></clipPath><clipPath
       id="clipPath748"
       clipPathUnits="userSpaceOnUse"><path
         id="path750"
         d="m 174.296,324.423 15.746,0 0,-1.736 -15.746,0 0,1.736 z" /></clipPath><clipPath
       id="clipPath780"
       clipPathUnits="userSpaceOnUse"><path
         id="path782"
         d="m 140.947,273.852 80.218,0 0,-25.969 -80.218,0 0,25.969 z" /></clipPath><clipPath
       id="clipPath796"
       clipPathUnits="userSpaceOnUse"><path
         id="path798"
         d="m 144.105,248.08 73.839,0 0,-25.262 -73.839,0 0,25.262 z" /></clipPath><clipPath
       id="clipPath880"
       clipPathUnits="userSpaceOnUse"><path
         id="path882"
         d="m 284.93,189.785 89.188,0 0,-36.687 -89.188,0 0,36.687 z" /></clipPath><clipPath
       id="clipPath896"
       clipPathUnits="userSpaceOnUse"><path
         id="path898"
         d="m 288.441,153.378 82.096,0 0,-35.688 -82.096,0 0,35.688 z" /></clipPath><clipPath
       id="clipPath912"
       clipPathUnits="userSpaceOnUse"><path
         id="path914"
         d="m 719.664,597.772 549.366,0 0,-503.772 -549.366,0 0,503.772 z" /></clipPath></defs><g
     transform="matrix(1.25,0,0,-1.25,0,975)"
     id="g10"><path
       id="path12"
       style="fill:#58303f;fill-opacity:1;fill-rule:nonzero;stroke:none"
       d="m 0,94.25 1600,0 L 1600,780 0,780 0,94.25 Z" /><g
       transform="translate(204.5762,469.3301)"
       id="g14"><path
         id="path16"
         style="fill:#693f4f;fill-opacity:1;fill-rule:nonzero;stroke:none"
         d="M 0,0 -35.795,-3.839 -51.152,139.34 -15.357,143.179 0,0 Z" /></g><g
       transform="translate(232.1655,468.9961)"
       id="g18"><path
         id="path20"
         style="fill:#693f4f;fill-opacity:1;fill-rule:nonzero;stroke:none"
         d="M 0,0 -15.606,-3.529 -37.664,94.008 -22.058,97.537 0,0 Z" /></g><path
       id="path22"
       style="fill:#693f4f;fill-opacity:1;fill-rule:nonzero;stroke:none"
       d="m 249.667,465.666 -15.333,0 0,114 15.333,0 0,-114 z" /><path
       id="path24"
       style="fill:#693f4f;fill-opacity:1;fill-rule:nonzero;stroke:none"
       d="m 275.667,466 -24.667,0 0,132.667 24.667,0 0,-132.667 z" /><path
       id="path26"
       style="fill:#693f4f;fill-opacity:1;fill-rule:nonzero;stroke:none"
       d="m 283.667,465.667 -6.667,0 0,92.667 6.667,0 0,-92.667 z" /><path
       id="path28"
       style="fill:#693f4f;fill-opacity:1;fill-rule:nonzero;stroke:none"
       d="m 313.666,465.333 -28.667,0 0,102 28.667,0 0,-102 z" /><g
       transform="translate(329.1191,466.8979)"
       id="g30"><path
         id="path32"
         style="fill:#693f4f;fill-opacity:1;fill-rule:nonzero;stroke:none"
         d="m 0,0 -8.629,-0.806 -6.945,74.343 8.629,0.806 L 0,0 Z" /></g><g
       transform="translate(369.7983,470.1016)"
       id="g34"><path
         id="path36"
         style="fill:#693f4f;fill-opacity:1;fill-rule:nonzero;stroke:none"
         d="M 0,0 -15.334,-4.568 -40.266,79.131 -24.932,83.699 0,0 Z" /></g><g
       transform="translate(342.1499,467.4575)"
       id="g38"><path
         id="path40"
         style="fill:#693f4f;fill-opacity:1;fill-rule:nonzero;stroke:none"
         d="m 0,0 -7.904,-1.234 -13.064,83.653 7.904,1.234 L 0,0 Z" /></g><path
       id="path42"
       style="fill:#693f4f;fill-opacity:1;fill-rule:nonzero;stroke:none"
       d="m 602.667,465.583 -15.333,0 0,134.241 15.333,0 0,-134.241 z" /><path
       id="path44"
       style="fill:#693f4f;fill-opacity:1;fill-rule:nonzero;stroke:none"
       d="m 628.667,462.444 -24.667,0 0,156.223 24.667,0 0,-156.223 z" /><path
       id="path46"
       style="fill:#693f4f;fill-opacity:1;fill-rule:nonzero;stroke:none"
       d="m 636.667,465.584 -6.667,0 0,109.121 6.667,0 0,-109.121 z" /><path
       id="path48"
       style="fill:#693f4f;fill-opacity:1;fill-rule:nonzero;stroke:none"
       d="m 666.666,462.837 -28.667,0 0,120.111 28.667,0 0,-120.111 z" /><path
       id="path50"
       style="fill:#693f4f;fill-opacity:1;fill-rule:nonzero;stroke:none"
       d="m 683.417,462.639 -15.333,0 0,134.242 15.333,0 0,-134.242 z" /><path
       id="path52"
       style="fill:#693f4f;fill-opacity:1;fill-rule:nonzero;stroke:none"
       d="m 709.417,459.5 -24.667,0 0,130.317 24.667,0 0,-130.317 z" /><path
       id="path54"
       style="fill:#693f4f;fill-opacity:1;fill-rule:nonzero;stroke:none"
       d="m 717.417,462.641 -6.667,0 0,142.092 6.667,0 0,-142.092 z" /><path
       id="path56"
       style="fill:#693f4f;fill-opacity:1;fill-rule:nonzero;stroke:none"
       d="m 747.416,459.893 -28.667,0 0,120.111 28.667,0 0,-120.111 z" /><g
       transform="translate(969.8945,467.4268)"
       id="g58"><path
         id="path60"
         style="fill:#693f4f;fill-opacity:1;fill-rule:nonzero;stroke:none"
         d="M 0,0 15.132,-1.414 27.309,128.938 12.177,130.352 0,0 Z" /></g><g
       transform="translate(898.5684,473.0435)"
       id="g62"><path
         id="path64"
         style="fill:#693f4f;fill-opacity:1;fill-rule:nonzero;stroke:none"
         d="M 0,0 26.887,-8.01 70.602,138.748 43.716,146.757 0,0 Z" /></g><g
       transform="translate(947.0469,468.4067)"
       id="g66"><path
         id="path68"
         style="fill:#693f4f;fill-opacity:1;fill-rule:nonzero;stroke:none"
         d="M 0,0 13.859,-2.165 36.766,144.513 22.907,146.677 0,0 Z" /></g><g
       transform="translate(772.2705,467.4141)"
       id="g70"><path
         id="path72"
         style="fill:#693f4f;fill-opacity:1;fill-rule:nonzero;stroke:none"
         d="m 0,0 -13.7,-1.28 -11.026,118.028 13.701,1.28 L 0,0 Z" /></g><g
       transform="translate(792.9585,468.3022)"
       id="g74"><path
         id="path76"
         style="fill:#693f4f;fill-opacity:1;fill-rule:nonzero;stroke:none"
         d="m 0,0 -12.549,-1.959 -20.741,132.808 12.549,1.96 L 0,0 Z" /></g><path
       id="path78"
       style="fill:#693f4f;fill-opacity:1;fill-rule:nonzero;stroke:none"
       d="m 519.3,156.731 -139.7,0 0,30.345 139.7,0 0,-30.345 z" /><path
       id="path80"
       style="fill:#693f4f;fill-opacity:1;fill-rule:nonzero;stroke:none"
       d="m 527,186.469 -154,0 0,11.531 154,0 0,-11.531 z" /><path
       id="path82"
       style="fill:#693f4f;fill-opacity:1;fill-rule:nonzero;stroke:none"
       d="m 505,106 -108,0 0,52 108,0 0,-52 z" /><path
       id="path84"
       style="fill:#693f4f;fill-opacity:1;fill-rule:nonzero;stroke:none"
       d="m 508,197 -99,0 0,28 99,0 0,-28 z" /><path
       id="path86"
       style="fill:#693f4f;fill-opacity:1;fill-rule:nonzero;stroke:none"
       d="m 363.117,287.042 -173.038,0 0,15.334 173.038,0 0,-15.334 z" /><path
       id="path88"
       style="fill:#693f4f;fill-opacity:1;fill-rule:nonzero;stroke:none"
       d="m 367.163,303.709 -201.372,0 0,24.667 201.372,0 0,-24.667 z" /><path
       id="path90"
       style="fill:#693f4f;fill-opacity:1;fill-rule:nonzero;stroke:none"
       d="m 356.115,329.709 -163.657,0 0,6.666 163.657,0 0,-6.666 z" /><path
       id="path92"
       style="fill:#693f4f;fill-opacity:1;fill-rule:nonzero;stroke:none"
       d="m 336.656,337.708 -154.823,0 0,28.667 154.823,0 0,-28.667 z" /><path
       id="path94"
       style="fill:#693f4f;fill-opacity:1;fill-rule:nonzero;stroke:none"
       d="m 352.911,367.792 -189.038,0 0,15.334 189.038,0 0,-15.334 z" /><path
       id="path96"
       style="fill:#693f4f;fill-opacity:1;fill-rule:nonzero;stroke:none"
       d="m 370.958,384.459 -167.979,0 0,24.667 167.979,0 0,-24.667 z" /><g
       transform="translate(359.9097,417.1255)"
       id="g98"><path
         id="path100"
         style="fill:#693f4f;fill-opacity:1;fill-rule:nonzero;stroke:none"
         d="m 0,0 0,-6.667 -130.91,0 0,6.667 L 0,0 Z" /></g><g
       transform="translate(397.0596,287.8574)"
       id="g102"><path
         id="path104"
         style="fill:#693f4f;fill-opacity:1;fill-rule:nonzero;stroke:none"
         d="m 0,0 -14.691,-1.373 -11.824,126.562 14.692,1.373 L 0,0 Z" /></g><g
       transform="translate(466.312,294.3105)"
       id="g106"><path
         id="path108"
         style="fill:#693f4f;fill-opacity:1;fill-rule:nonzero;stroke:none"
         d="M 0,0 -26.105,-7.777 -68.549,134.714 -42.445,142.49 0,0 Z" /></g><g
       transform="translate(419.2422,289.8086)"
       id="g110"><path
         id="path112"
         style="fill:#693f4f;fill-opacity:1;fill-rule:nonzero;stroke:none"
         d="m 0,0 -13.456,-2.102 -22.24,142.414 13.455,2.101 L 0,0 Z" /></g><g
       transform="translate(348.9097,425.1255)"
       id="g114"><path
         id="path116"
         style="fill:#693f4f;fill-opacity:1;fill-rule:nonzero;stroke:none"
         d="m 0,0 0,-6.667 -102.91,0 0,6.667 L 0,0 Z" /></g><g
       transform="translate(442.9116,555.9785)"
       id="g118"><path
         id="path120"
         style="fill:#693f4f;fill-opacity:1;fill-rule:nonzero;stroke:none"
         d="m 0,0 -16.127,-37.199 32.071,0 L 0,0 Z m 38.667,-89.979 -11.911,27.672 -53.695,0 -11.912,-27.672 -30.42,0 55.343,128.098 27.672,0 55.344,-128.098 -30.421,0 z" /></g><g
       id="g122"><g
         clip-path="url(#clipPath126)"
         id="g124"><g
           transform="translate(1358.5938,562.3984)"
           id="g130"><path
             id="path132"
             style="fill:#693f4f;fill-opacity:1;fill-rule:nonzero;stroke:none"
             d="m 0,0 c -2.335,-0.125 -4.387,-1.061 -6.153,-2.804 -1.767,-1.747 -2.576,-4.024 -2.425,-6.833 0.151,-2.812 2.488,-6.757 7.016,-11.833 7.731,4.67 11.496,8.862 11.295,12.576 -0.166,3.076 -1.244,5.361 -3.24,6.849 C 4.498,-0.557 2.331,0.125 0,0 m -14.074,-73.691 c 3.207,-2.277 7.249,-3.282 12.131,-3.02 4.877,0.262 10.006,2.878 15.381,7.849 -8.187,7.752 -15.271,14.82 -21.251,21.202 -7.898,-5.531 -11.688,-11.216 -11.375,-17.05 0.201,-3.714 1.902,-6.707 5.114,-8.981 m 43.491,-10.432 c -8.524,-7.694 -18.649,-11.854 -30.37,-12.484 -11.725,-0.629 -21.512,1.85 -29.367,7.44 -7.856,5.587 -12.062,13.58 -12.62,23.98 -0.626,11.668 6.615,22.432 21.726,32.288 -3.729,4.053 -6.475,7.656 -8.242,10.808 -1.765,3.151 -2.765,6.899 -2.998,11.251 -0.485,9.016 2.408,16.089 8.675,21.214 6.269,5.124 13.86,7.925 22.77,8.404 8.912,0.479 16.647,-1.419 23.209,-5.695 6.559,-4.277 10.063,-10.551 10.507,-18.826 0.559,-10.4 -6.51,-20.46 -21.2,-30.186 6.339,-7.108 11.082,-12.227 14.23,-15.354 2.39,5.02 4.128,10.275 5.216,15.761 L 50.29,-47.89 c -2.079,-6.815 -4.716,-13.18 -7.909,-19.098 L 58.973,-81.736 44.022,-97.542 29.417,-84.123 Z" /></g><g
           transform="translate(1298.6797,394.9541)"
           id="g134"><path
             id="path136"
             style="fill:#693f4f;fill-opacity:1;fill-rule:nonzero;stroke:none"
             d="m 0,0 c -29.955,0 -54.238,-24.283 -54.238,-54.237 0,-29.955 24.283,-54.239 54.238,-54.239 29.955,0 54.237,24.284 54.237,54.239 C 54.237,-24.283 29.955,0 0,0 m 0,-7.533 c 25.752,0 46.704,-20.952 46.704,-46.704 0,-25.753 -20.952,-46.705 -46.704,-46.705 -25.754,0 -46.706,20.952 -46.706,46.705 0,25.752 20.952,46.704 46.706,46.704" /></g><g
           transform="translate(1298.6797,381.3945)"
           id="g138"><path
             id="path140"
             style="fill:#693f4f;fill-opacity:1;fill-rule:nonzero;stroke:none"
             d="M 0,0 0,-13.56" /></g><path
           id="path142"
           style="fill:#693f4f;fill-opacity:1;fill-rule:nonzero;stroke:none"
           d="m 1302.446,367.835 -7.534,0 0,13.56 7.534,0 0,-13.56 z" /><g
           transform="translate(1298.6797,313.5977)"
           id="g144"><path
             id="path146"
             style="fill:#693f4f;fill-opacity:1;fill-rule:nonzero;stroke:none"
             d="M 0,0 0,-13.56" /></g><path
           id="path148"
           style="fill:#693f4f;fill-opacity:1;fill-rule:nonzero;stroke:none"
           d="m 1302.446,300.038 -7.534,0 0,13.56 7.534,0 0,-13.56 z" /><g
           transform="translate(1339.3574,340.7168)"
           id="g150"><path
             id="path152"
             style="fill:#693f4f;fill-opacity:1;fill-rule:nonzero;stroke:none"
             d="M 0,0 -13.56,0" /></g><path
           id="path154"
           style="fill:#693f4f;fill-opacity:1;fill-rule:nonzero;stroke:none"
           d="m 1339.357,336.95 -13.56,0 0,7.532 13.56,0 0,-7.532 z" /><g
           transform="translate(1271.5605,340.7168)"
           id="g156"><path
             id="path158"
             style="fill:#693f4f;fill-opacity:1;fill-rule:nonzero;stroke:none"
             d="M 0,0 -13.56,0" /></g><path
           id="path160"
           style="fill:#693f4f;fill-opacity:1;fill-rule:nonzero;stroke:none"
           d="m 1271.561,336.95 -13.56,0 0,7.532 13.56,0 0,-7.532 z" /><g
           transform="translate(1318.709,316.8701)"
           id="g162"><path
             id="path164"
             style="fill:#693f4f;fill-opacity:1;fill-rule:nonzero;stroke:none"
             d="m 0,0 -23.824,22.217 0.115,21.988 7.534,-0.039 -0.098,-18.69 L 5.138,5.509 0,0 Z" /></g><g
           transform="translate(1111.707,286.5635)"
           id="g166"><path
             id="path168"
             style="fill:#693f4f;fill-opacity:1;fill-rule:nonzero;stroke:none"
             d="M 0,0 -12.834,-1.199 -23.162,109.36 -10.328,110.559 0,0 Z" /></g><g
           transform="translate(1172.2031,291.3271)"
           id="g170"><path
             id="path172"
             style="fill:#693f4f;fill-opacity:1;fill-rule:nonzero;stroke:none"
             d="m 0,0 -22.805,-6.794 -37.077,124.475 22.804,6.793 L 0,0 Z" /></g><g
           transform="translate(1131.085,287.3945)"
           id="g174"><path
             id="path176"
             style="fill:#693f4f;fill-opacity:1;fill-rule:nonzero;stroke:none"
             d="M 0,0 -11.755,-1.836 -31.183,122.57 -19.429,124.406 0,0 Z" /></g><g
           transform="translate(1407.041,286.5635)"
           id="g178"><path
             id="path180"
             style="fill:#693f4f;fill-opacity:1;fill-rule:nonzero;stroke:none"
             d="M 0,0 12.834,-1.199 23.162,109.36 10.328,110.56 0,0 Z" /></g><g
           transform="translate(1346.5449,291.3271)"
           id="g182"><path
             id="path184"
             style="fill:#693f4f;fill-opacity:1;fill-rule:nonzero;stroke:none"
             d="M 0,0 22.805,-6.794 59.882,117.681 37.078,124.474 0,0 Z" /></g><g
           transform="translate(1387.6631,287.3945)"
           id="g186"><path
             id="path188"
             style="fill:#693f4f;fill-opacity:1;fill-rule:nonzero;stroke:none"
             d="M 0,0 11.755,-1.836 31.183,122.57 19.429,124.406 0,0 Z" /></g><g
           transform="translate(1217.3369,293.251)"
           id="g190"><path
             id="path192"
             style="fill:#693f4f;fill-opacity:1;fill-rule:nonzero;stroke:none"
             d="M 0,0 -10.799,-7.039 -71.433,85.985 -60.635,93.024 0,0 Z" /></g><path
           id="path194"
           style="fill:#693f4f;fill-opacity:1;fill-rule:nonzero;stroke:none"
           d="m 1251.856,465.206 -216.931,0 0,24.667 216.931,0 0,-24.667 z" /><path
           id="path196"
           style="fill:#693f4f;fill-opacity:1;fill-rule:nonzero;stroke:none"
           d="m 1239.955,491.206 -176.303,0 0,6.666 176.303,0 0,-6.666 z" /><path
           id="path198"
           style="fill:#693f4f;fill-opacity:1;fill-rule:nonzero;stroke:none"
           d="m 1218.992,499.205 -166.785,0 0,28.667 166.785,0 0,-28.667 z" /><path
           id="path200"
           style="fill:#693f4f;fill-opacity:1;fill-rule:nonzero;stroke:none"
           d="m 1236.503,529.289 -177.644,0 0,15.334 177.644,0 0,-15.334 z" /><path
           id="path202"
           style="fill:#693f4f;fill-opacity:1;fill-rule:nonzero;stroke:none"
           d="m 1221.944,545.956 -180.958,0 0,24.667 180.958,0 0,-24.667 z" /><g
           transform="translate(1210.043,578.6226)"
           id="g204"><path
             id="path206"
             style="fill:#693f4f;fill-opacity:1;fill-rule:nonzero;stroke:none"
             d="m 0,0 0,-6.667 -178.043,0 0,6.667 L 0,0 Z" /></g><g
           transform="translate(1195.083,586.6226)"
           id="g208"><path
             id="path210"
             style="fill:#693f4f;fill-opacity:1;fill-rule:nonzero;stroke:none"
             d="m 0,0 0,-6.667 -139.962,0 0,6.667 L 0,0 Z" /></g><g
           transform="translate(1244.043,599.1636)"
           id="g212"><path
             id="path214"
             style="fill:#693f4f;fill-opacity:1;fill-rule:nonzero;stroke:none"
             d="m 0,0 0,-11.25 -160.543,0 0,11.25 L 0,0 Z" /></g><g
           transform="translate(1229.083,607.6226)"
           id="g216"><path
             id="path218"
             style="fill:#693f4f;fill-opacity:1;fill-rule:nonzero;stroke:none"
             d="m 0,0 0,-6.667 -139.962,0 0,6.667 L 0,0 Z" /></g><g
           transform="translate(1303.3203,473.2241)"
           id="g220"><path
             id="path222"
             style="fill:#693f4f;fill-opacity:1;fill-rule:nonzero;stroke:none"
             d="M 0,0 -17.174,-8.181 -61.821,85.562 -44.649,93.741 0,0 Z" /></g><g
           transform="translate(1270.4336,467.8521)"
           id="g224"><path
             id="path226"
             style="fill:#693f4f;fill-opacity:1;fill-rule:nonzero;stroke:none"
             d="m 0,0 -9.056,-2.91 -30.793,95.836 9.055,2.909 L 0,0 Z" /></g><path
           id="path228"
           style="fill:#693f4f;fill-opacity:1;fill-rule:nonzero;stroke:none"
           d="m 897,466 -97,0 0,84.5 97,0 0,-84.5 z" /><path
           id="path230"
           style="fill:#693f4f;fill-opacity:1;fill-rule:nonzero;stroke:none"
           d="m 902,550 -108,0 0,16 108,0 0,-16 z" /><path
           id="path232"
           style="fill:#693f4f;fill-opacity:1;fill-rule:nonzero;stroke:none"
           d="m 170.334,103.332 -15.333,0 0,114 15.333,0 0,-114 z" /><path
           id="path234"
           style="fill:#693f4f;fill-opacity:1;fill-rule:nonzero;stroke:none"
           d="m 196.334,100.666 -24.667,0 0,105.667 24.667,0 0,-105.667 z" /><path
           id="path236"
           style="fill:#693f4f;fill-opacity:1;fill-rule:nonzero;stroke:none"
           d="m 204.333,103.333 -6.667,0 0,92.667 6.667,0 0,-92.667 z" /><path
           id="path238"
           style="fill:#693f4f;fill-opacity:1;fill-rule:nonzero;stroke:none"
           d="m 234.333,101 -28.667,0 0,122 28.667,0 0,-122 z" /><path
           id="path240"
           style="fill:#693f4f;fill-opacity:1;fill-rule:nonzero;stroke:none"
           d="m 251.084,100.832 -15.333,0 0,114 15.333,0 0,-114 z" /><path
           id="path242"
           style="fill:#693f4f;fill-opacity:1;fill-rule:nonzero;stroke:none"
           d="m 277.084,98.166 -24.667,0 0,130.334 24.667,0 0,-130.334 z" /><path
           id="path244"
           style="fill:#693f4f;fill-opacity:1;fill-rule:nonzero;stroke:none"
           d="m 285.083,100.833 -6.667,0 0,120.667 6.667,0 0,-120.667 z" /><path
           id="path246"
           style="fill:#693f4f;fill-opacity:1;fill-rule:nonzero;stroke:none"
           d="m 314.75,101.501 -28.667,0 0,102 28.667,0 0,-102 z" /><g
           transform="translate(1407.041,107.5635)"
           id="g248"><path
             id="path250"
             style="fill:#693f4f;fill-opacity:1;fill-rule:nonzero;stroke:none"
             d="M 0,0 12.834,-1.199 23.162,109.36 10.328,110.56 0,0 Z" /></g><g
           transform="translate(1346.5449,112.3271)"
           id="g252"><path
             id="path254"
             style="fill:#693f4f;fill-opacity:1;fill-rule:nonzero;stroke:none"
             d="M 0,0 22.805,-6.794 59.882,117.681 37.078,124.474 0,0 Z" /></g><g
           transform="translate(1387.6631,108.3945)"
           id="g256"><path
             id="path258"
             style="fill:#693f4f;fill-opacity:1;fill-rule:nonzero;stroke:none"
             d="M 0,0 11.755,-1.836 31.183,122.57 19.429,124.406 0,0 Z" /></g><path
           id="path260"
           style="fill:#693f4f;fill-opacity:1;fill-rule:nonzero;stroke:none"
           d="m 154.375,266.258 412,0 0,-159.891 -412,0 0,159.891 z m 0,179.878 412,0 0,-159.892 -412,0 0,159.892 z m 0,179.878 412,0 0,-159.891 0,-10e-4 -412,0 0,159.892 z m 432,-359.756 412,0 0,-159.891 -412,0 0,159.891 z m 0,179.878 0,0 412,0 0,-159.892 -412,0 0,159.892 z m 0,179.878 412,0 0,-159.892 -412,0 0,159.892 z m 432,-359.756 412,0 0,-159.891 -412,0 0,159.891 z m 0,179.878 412,0 0,-159.892 -412,0 0,159.892 z m 0,179.878 412,0 0,-159.892 -412,0 0,159.892 z m 432,-531.639 0,171.883 0,19.986 0,159.892 0,19.987 0,179.877 -432,0 -20,0 -432,0 0,0 -432,0 0,-179.878 0,-19.986 0,-159.892 0,-19.986 0,-171.883 1316,0 z" /></g></g><g
       id="g262"><g
         clip-path="url(#clipPath266)"
         id="g264"><g
           transform="translate(1513.584,95.5098)"
           id="g270"><path
             id="path272"
             style="fill:#3088c4;fill-opacity:1;fill-rule:nonzero;stroke:none"
             d="m 0,0 2.074,-1.154 c 8.77,0.489 15.568,13.556 15.568,30.165 0,16.605 -6.796,29.673 -15.563,30.163 L 0,58.02 l -2.122,1.178 -214.484,0 c -1.083,0 -1.96,-0.878 -1.96,-1.96 0,-1.083 0.877,-1.961 1.96,-1.961 l 218.174,0 c 5.869,0 12.153,-10.553 12.153,-26.266 C 13.721,13.298 7.437,2.744 1.568,2.744 l -218.174,0 c -1.083,0 -1.96,-0.878 -1.96,-1.961 0,-1.082 0.877,-1.96 1.96,-1.96 l 214.489,0 L 0,0 Z" /></g><g
           transform="translate(1309.1602,124.5205)"
           id="g274"><path
             id="path276"
             style="fill:#ededed;fill-opacity:1;fill-rule:nonzero;stroke:none"
             d="m 0,0 c 0,-13.142 -4.186,-23.039 -8.801,-26.267 l 214.793,0 c 5.868,0 12.153,10.554 12.153,26.267 0,15.713 -6.285,26.267 -12.153,26.267 l -214.791,0 C -4.185,23.038 0,13.141 0,0" /></g><g
           transform="translate(1515.001,97.8848)"
           id="g278"><path
             id="path280"
             style="fill:#ffc36c;fill-opacity:1;fill-rule:nonzero;stroke:none"
             d="m 0,0 0,1.568 c 5.972,0 11.017,11.48 11.017,25.068 0,13.588 -5.045,25.067 -11.017,25.067 l 0,1.568 c 7.058,0 12.585,-11.7 12.585,-26.635 C 12.585,11.699 7.058,0 0,0" /></g><g
           transform="translate(1393.5186,156.3203)"
           id="g282"><path
             id="path284"
             style="fill:#ffc36c;fill-opacity:1;fill-rule:nonzero;stroke:none"
             d="m 0,0 -2.771,-1.395 c -9.378,0.955 -16.567,13.406 -16.567,29.137 0,15.733 7.188,28.183 16.566,29.139 L 0,55.484 l 2.905,1.463 140.521,0 c 1.778,0 3.222,-1.307 3.222,-2.921 0,-1.612 -1.444,-2.919 -3.222,-2.919 l -145.036,0 c -5.336,0 -11.282,-9.596 -11.282,-23.365 0,-13.766 5.946,-23.363 11.282,-23.363 l 145.036,0 c 1.778,0 3.222,-1.306 3.222,-2.919 0,-1.612 -1.444,-2.921 -3.222,-2.921 L 2.901,-1.461 0,0 Z" /></g><g
           transform="translate(1525.6641,184.0625)"
           id="g286"><path
             id="path288"
             style="fill:#ffffff;fill-opacity:1;fill-rule:nonzero;stroke:none"
             d="m 0,0 c 0,13.769 5.945,23.365 11.28,23.365 l -145.036,0 c -5.336,0 -11.281,-9.596 -11.281,-23.365 0,-13.767 5.945,-23.363 11.281,-23.363 l 145.036,0 C 5.945,-23.363 0,-13.767 0,0" /></g><g
           transform="translate(1390.833,160.9463)"
           id="g290"><path
             id="path292"
             style="fill:#ea2c4e;fill-opacity:1;fill-rule:nonzero;stroke:none"
             d="m 0,0 0,1.46 c -5.501,0 -10.147,9.917 -10.147,21.656 0,11.741 4.646,21.659 10.147,21.659 l 0,1.459 C -6.565,46.234 -11.708,36.08 -11.708,23.116 -11.708,10.155 -6.565,0 0,0" /></g><g
           transform="translate(1508.1182,214.2754)"
           id="g294"><path
             id="path296"
             style="fill:#ea2c4e;fill-opacity:1;fill-rule:nonzero;stroke:none"
             d="m 0,0 2.26,-0.964 c 0.055,0.007 0.112,0.006 0.167,0.017 5.738,0.455 10.006,8.321 10.006,18.684 0,10.364 -4.268,18.23 -10.006,18.685 -0.014,0.003 -0.03,0.002 -0.042,0.005 L 0,35.409 l -2.479,1.057 -174.838,0 c -1.254,0 -2.271,-1.017 -2.271,-2.271 0,-1.254 1.017,-2.269 2.271,-2.269 l 179.222,0 c 2.827,0 5.989,-6.069 5.989,-14.189 0,-8.12 -3.162,-14.188 -5.989,-14.188 l -179.222,0 c -1.254,0 -2.271,-1.017 -2.271,-2.271 0,-1.253 1.017,-2.269 2.271,-2.269 l 174.993,0 L 0,0 Z" /></g><g
           transform="translate(1331.8154,246.2012)"
           id="g298"><path
             id="path300"
             style="fill:#f6f6f6;fill-opacity:1;fill-rule:nonzero;stroke:none"
             d="m 0,0 c 2.184,-3.376 3.524,-8.389 3.524,-14.188 0,-5.797 -1.338,-10.811 -3.52,-14.189 l 178.204,0 c 2.827,0 5.988,6.068 5.988,14.189 0,8.12 -3.161,14.188 -5.988,14.188 L 0,0 Z" /></g><g
           transform="translate(1510.2939,217.8604)"
           id="g302"><path
             id="path304"
             style="fill:#3088c4;fill-opacity:1;fill-rule:nonzero;stroke:none"
             d="m 0,0 0,0.907 c 2.936,0 5.415,6.067 5.415,13.246 0,7.178 -2.479,13.243 -5.415,13.243 l 0,0.908 c 3.546,0 6.323,-6.216 6.323,-14.151 C 6.323,6.217 3.546,0 0,0" /></g><path
           id="path306"
           style="fill:#dadada;fill-opacity:1;fill-rule:nonzero;stroke:none"
           d="m 317.25,131.82 -237.283,0 0,-14.83 237.283,0 0,14.83 z" /><path
           id="path308"
           style="fill:#9d9d9c;fill-opacity:1;fill-rule:nonzero;stroke:none"
           d="m 271.037,176.312 -156.466,0 0,29.66 156.466,0 0,-29.66 z" /><path
           id="path310"
           style="fill:#f4af53;fill-opacity:1;fill-rule:nonzero;stroke:none"
           d="m 206.577,176.312 -77.176,0 0,29.66 77.176,0 0,-29.66 z" /><path
           id="path312"
           style="fill:#ea2c4e;fill-opacity:1;fill-rule:nonzero;stroke:none"
           d="m 255.879,161.481 -200.629,0 0,14.83 200.629,0 0,-14.83 z" /><path
           id="path314"
           style="fill:#b71842;fill-opacity:1;fill-rule:nonzero;stroke:none"
           d="m 93.698,161.481 -18.675,0 0,14.83 18.675,0 0,-14.83 z" /><path
           id="path316"
           style="fill:#b71842;fill-opacity:1;fill-rule:nonzero;stroke:none"
           d="m 223.051,161.481 -74.426,0 0,14.83 74.426,0 0,-14.83 z" /><path
           id="path318"
           style="fill:#4b2333;fill-opacity:1;fill-rule:nonzero;stroke:none"
           d="m 70.081,161.481 237.283,0 0,-29.661 -237.283,0 0,29.661 z" /><path
           id="path320"
           style="fill:#ffc36c;fill-opacity:1;fill-rule:nonzero;stroke:none"
           d="m 93.423,131.82 -8.513,0 0,29.661 8.513,0 0,-29.661 z" /><path
           id="path322"
           style="fill:#ffc36c;fill-opacity:1;fill-rule:nonzero;stroke:none"
           d="m 105.233,131.82 -8.514,0 0,29.661 8.514,0 0,-29.661 z" /><path
           id="path324"
           style="fill:#ffc36c;fill-opacity:1;fill-rule:nonzero;stroke:none"
           d="m 218.533,131.82 -8.514,0 0,29.661 8.514,0 0,-29.661 z" /><path
           id="path326"
           style="fill:#5fc79a;fill-opacity:1;fill-rule:nonzero;stroke:none"
           d="M 270.453,116.99 48,116.99 48,94 l 222.453,0 0,22.99 z" /><path
           id="path328"
           style="fill:#9d9d9c;fill-opacity:1;fill-rule:nonzero;stroke:none"
           d="m 186.313,94 -93.822,0 0,22.99 93.822,0 0,-22.99 z" /><path
           id="path330"
           style="fill:#9d9d9c;fill-opacity:1;fill-rule:nonzero;stroke:none"
           d="m 230.173,94.036 -8.513,0 0,22.949 8.513,0 0,-22.949 z" /><path
           id="path332"
           style="fill:#9d9d9c;fill-opacity:1;fill-rule:nonzero;stroke:none"
           d="m 241.983,94.036 -8.514,0 0,22.949 8.514,0 0,-22.949 z" /></g></g><g
       id="g334"><g
         clip-path="url(#clipPath338)"
         id="g336"><g
           transform="translate(1341.2432,120.6973)"
           id="g342"><path
             id="path344"
             style="fill:#ea2c4e;fill-opacity:1;fill-rule:nonzero;stroke:none"
             d="m 0,0 -0.484,1.939 c 29.854,7.464 77.43,48.312 121.206,104.065 48.476,61.74 82.684,128.717 93.929,183.878 C 96.026,379.027 52.201,475.65 31.122,522.12 c -7.828,17.258 -13,28.659 -17.177,29.136 l -0.137,0.026 c -52.991,13.719 -78.956,-25.13 -79.212,-25.524 l -1.678,1.09 c 0.27,0.416 6.775,10.282 20.101,18.549 12.279,7.619 32.864,15.159 61.227,7.837 5.274,-0.695 10.054,-11.232 18.697,-30.288 21.04,-46.383 64.822,-142.901 183.413,-231.843 l 0.505,-0.379 -0.124,-0.619 C 205.563,234.53 171.14,166.978 122.295,104.769 78.262,48.688 30.259,7.563 0,0" /></g><g
           transform="translate(1340.5488,116.3857)"
           id="g346"><path
             id="path348"
             style="fill:#5fc79a;fill-opacity:1;fill-rule:nonzero;stroke:none"
             d="M 0,0 -5.6,4.199 215.812,299.416 14.555,555.56 -58.388,531.246 -60.601,537.887 17.016,563.759 224.636,299.514 0,0 Z" /></g><g
           transform="translate(1556.126,403.9277)"
           id="g350"><path
             id="path352"
             style="fill:#b9b9b9;fill-opacity:1;fill-rule:nonzero;stroke:none"
             d="m 0,0 c -5.721,0 -10.374,4.654 -10.374,10.374 0,5.72 4.653,10.374 10.374,10.374 5.721,0 10.374,-4.654 10.374,-10.374 C 10.374,4.654 5.721,0 0,0" /></g><g
           transform="translate(1556.126,426.1758)"
           id="g354"><path
             id="path356"
             style="fill:#dadada;fill-opacity:1;fill-rule:nonzero;stroke:none"
             d="m 0,0 c -6.558,0 -11.874,-5.316 -11.874,-11.874 0,-6.559 5.316,-11.874 11.874,-11.874 6.559,0 11.874,5.315 11.874,11.874 C 11.874,-5.316 6.559,0 0,0 m 0,-3 c 4.894,0 8.874,-3.981 8.874,-8.874 0,-4.893 -3.98,-8.874 -8.874,-8.874 -4.894,0 -8.874,3.981 -8.874,8.874 0,4.893 3.98,8.874 8.874,8.874" /></g><g
           transform="translate(1355.3018,662.5732)"
           id="g358"><path
             id="path360"
             style="fill:#b9b9b9;fill-opacity:1;fill-rule:nonzero;stroke:none"
             d="m 0,0 c -5.721,0 -10.374,4.654 -10.374,10.374 0,5.72 4.653,10.374 10.374,10.374 5.721,0 10.374,-4.654 10.374,-10.374 C 10.374,4.654 5.721,0 0,0" /></g><g
           transform="translate(1355.3018,684.8213)"
           id="g362"><path
             id="path364"
             style="fill:#dadada;fill-opacity:1;fill-rule:nonzero;stroke:none"
             d="m 0,0 c -6.559,0 -11.874,-5.316 -11.874,-11.874 0,-6.558 5.315,-11.874 11.874,-11.874 6.558,0 11.874,5.316 11.874,11.874 C 11.874,-5.316 6.558,0 0,0 m 0,-3 c 4.894,0 8.874,-3.981 8.874,-8.874 0,-4.893 -3.98,-8.874 -8.874,-8.874 -4.894,0 -8.874,3.981 -8.874,8.874 0,4.893 3.98,8.874 8.874,8.874" /></g><g
           transform="translate(1284.4395,653.5371)"
           id="g366"><path
             id="path368"
             style="fill:#dadada;fill-opacity:1;fill-rule:nonzero;stroke:none"
             d="m 0,0 10.909,21.52 c 4.805,9.481 1.015,21.062 -8.465,25.868 l -9.27,4.698 c -9.481,4.807 -21.063,1.017 -25.868,-8.464 L -43.602,22.101 c -31.033,-1.476 -66.757,-28.281 -90.15,-70.095 L -3.241,-114.148 C 16.654,-70.561 17.155,-25.9 0,0" /></g><g
           transform="translate(1323.293,123.6484)"
           id="g370"><path
             id="path372"
             style="fill:#b9b9b9;fill-opacity:1;fill-rule:nonzero;stroke:none"
             d="m 0,0 37.171,0 74.342,-20.65 0,-8.261 -185.854,0 0,8.261 L 0,0 Z" /></g><path
           id="path374"
           style="fill:#dadada;fill-opacity:1;fill-rule:nonzero;stroke:none"
           d="m 1248.952,102.998 185.854,0 0,-8.761 -185.854,0 0,8.761 z" /><g
           transform="translate(1150.6875,605.5435)"
           id="g376"><path
             id="path378"
             style="fill:#b9b9b9;fill-opacity:1;fill-rule:nonzero;stroke:none"
             d="m 0,0 130.511,-66.154 c 0.745,1.63 1.453,3.261 2.143,4.894 L 2.682,4.621 C 1.772,3.1 0.876,1.564 0,0" /></g></g></g><g
       id="g380"><g
         clip-path="url(#clipPath384)"
         id="g382"><g
           transform="translate(1193.6318,105.6553)"
           id="g388"><path
             id="path390"
             style="fill:#9d9d9c;fill-opacity:1;fill-rule:nonzero;stroke:none"
             d="m 0,0 0,0.59 -787.206,0 0,-0.646 -27.813,0 c 3.886,-6.451 14.864,-11.103 27.813,-11.114 l 0,-0.059 787.206,0 0,0.119 c 0.136,-0.001 0.27,-0.005 0.405,-0.005 12.969,0 23.966,4.656 27.856,11.115 L 0,0 Z" /></g><g
           transform="translate(1142.5117,115.7051)"
           id="g392"><path
             id="path394"
             style="fill:#1d1d1b;fill-opacity:1;fill-rule:nonzero;stroke:none"
             d="m 0,0 0,440.587 c 0,13.708 -11.113,24.822 -24.822,24.822 l -637.684,0 c -13.708,0 -24.822,-11.114 -24.822,-24.822 L -687.328,0 0,0 Z" /></g><g
           transform="translate(456.0703,117.4775)"
           id="g396"><path
             id="path398"
             style="fill:#dadada;fill-opacity:1;fill-rule:nonzero;stroke:none"
             d="m 0,0 0,438.814 c 0,13.198 10.738,23.936 23.936,23.936 l 637.683,0 c 13.198,0 23.936,-10.738 23.936,-23.936 l 0,-438.814 1.773,0 0,438.814 c 0,14.175 -11.533,25.708 -25.709,25.708 l -637.683,0 c -14.176,0 -25.709,-11.533 -25.709,-25.708 L -1.773,0 0,0 Z" /></g><path
           id="path400"
           style="fill:#5fc79a;fill-opacity:1;fill-rule:nonzero;stroke:none"
           d="m 1120.351,150.869 -641.821,0 0,401.876 641.821,0 0,-401.876 z" /><g
           transform="translate(802.9863,566.9277)"
           id="g402"><path
             id="path404"
             style="fill:#6ccaef;fill-opacity:1;fill-rule:nonzero;stroke:none"
             d="m 0,0 c 0,-1.959 -1.588,-3.546 -3.546,-3.546 -1.959,0 -3.547,1.587 -3.547,3.546 0,1.958 1.588,3.546 3.547,3.546 C -1.588,3.546 0,1.958 0,0" /></g><path
           id="path406"
           style="fill:#dadada;fill-opacity:1;fill-rule:nonzero;stroke:none"
           d="m 1222,105.581 -843.479,0 0,16.03 843.479,0 0,-16.03 z" /><g
           transform="translate(722.542,379.4697)"
           id="g408"><path
             id="path410"
             style="fill:#ffffff;fill-opacity:1;fill-rule:nonzero;stroke:none"
             d="m 0,0 c -2.919,5.037 -8.624,7.452 -14.036,6.424 0.171,2.551 -0.388,5.174 -1.766,7.553 -3.694,6.376 -11.855,8.555 -18.234,4.862 -3.446,-1.999 -5.663,-5.309 -6.391,-8.931 -3.502,1.175 -7.475,0.899 -10.926,-1.1 -3.448,-1.997 -5.665,-5.305 -6.392,-8.926 -3.505,1.171 -7.476,0.897 -10.923,-1.101 -6.378,-3.693 -8.555,-11.856 -4.861,-18.235 1.375,-2.372 3.378,-4.168 5.669,-5.287 -3.585,-4.187 -4.329,-10.336 -1.412,-15.37 2.916,-5.035 8.622,-7.451 14.033,-6.421 -0.167,-2.552 0.39,-5.18 1.769,-7.556 3.473,-6.002 10.909,-8.282 17.085,-5.445 -0.089,-2.432 0.478,-4.919 1.787,-7.178 3.401,-5.877 10.609,-8.184 16.706,-5.615 0.051,-2.171 0.634,-4.359 1.798,-6.369 3.692,-6.376 11.852,-8.553 18.231,-4.857 6.373,3.691 8.551,11.854 4.857,18.23 -1.163,2.009 -2.774,3.6 -4.63,4.724 5.263,4.015 6.85,11.408 3.446,17.289 -1.308,2.26 -3.18,3.985 -5.336,5.116 5.531,3.955 7.256,11.531 3.78,17.532 -1.374,2.379 -3.374,4.175 -5.67,5.296 C 2.168,-11.181 2.915,-5.031 0,0" /></g><g
           transform="translate(663.0605,392.0605)"
           id="g412"><path
             id="path414"
             style="fill:#ffffff;fill-opacity:1;fill-rule:nonzero;stroke:none"
             d="M 0,0 -7.14,3.224 -4.931,16.329 -12.24,17.56 -14.122,6.375 -24.933,11.253 -27.982,4.5 -3.053,-6.757 0,0 Z" /></g><g
           transform="translate(792.3564,351.3154)"
           id="g416"><path
             id="path418"
             style="fill:#ffffff;fill-opacity:1;fill-rule:nonzero;stroke:none"
             d="m 0,0 11.562,0 0,-18.265 c -5.108,-5.697 -12.178,-8.544 -21.21,-8.544 -7.561,0 -13.908,2.504 -19.038,7.513 -5.13,5.007 -7.695,11.326 -7.695,18.963 0,7.633 2.615,14.006 7.842,19.108 5.23,5.109 11.539,7.662 18.928,7.662 7.389,0 13.808,-2.431 19.258,-7.292 L 3.682,10.529 c -2.308,2.013 -4.432,3.4 -6.37,4.16 -1.94,0.762 -4.04,1.143 -6.297,1.143 -4.371,0 -8.052,-1.487 -11.047,-4.455 -2.995,-2.974 -4.491,-6.887 -4.491,-11.746 0,-4.862 1.435,-8.754 4.306,-11.675 2.873,-2.92 6.297,-4.38 10.275,-4.38 3.977,0 7.289,0.759 9.942,2.281 L 0,0 Z" /></g><g
           transform="translate(831.8906,354.9961)"
           id="g420"><path
             id="path422"
             style="fill:#ffffff;fill-opacity:1;fill-rule:nonzero;stroke:none"
             d="m 0,0 c -3.29,0 -5.744,-1.165 -7.363,-3.497 -1.621,-2.334 -2.431,-5.415 -2.431,-9.242 l 0,-17.16 -11.046,0 0,39.62 11.046,0 0,-5.231 c 1.424,1.624 3.204,2.998 5.339,4.128 2.137,1.127 4.309,1.716 6.518,1.766 L 2.137,0 0,0 Z" /></g><g
           transform="translate(861.4854,340.1934)"
           id="g424"><path
             id="path426"
             style="fill:#ffffff;fill-opacity:1;fill-rule:nonzero;stroke:none"
             d="m 0,0 0,1.915 -6.923,0 c -4.418,0 -6.628,-1.374 -6.628,-4.124 0,-1.425 0.528,-2.519 1.583,-3.277 1.057,-0.764 2.566,-1.143 4.53,-1.143 1.963,0 3.695,0.602 5.191,1.806 C -0.749,-3.622 0,-2.017 0,0 m 11.12,-15.097 -10.385,0 0,4.784 c -2.846,-3.58 -6.369,-5.374 -10.566,-5.374 -4.198,0 -7.721,1.217 -10.568,3.647 -2.848,2.429 -4.272,5.671 -4.272,9.721 0,4.05 1.473,7.08 4.419,9.093 2.945,2.014 6.972,3.022 12.077,3.022 l 8.249,0 0,0.22 c 0,4.222 -2.234,6.334 -6.702,6.334 -1.914,0 -3.94,-0.381 -6.075,-1.142 -2.135,-0.762 -3.941,-1.707 -5.412,-2.838 l -4.935,7.144 c 5.203,3.782 11.144,5.673 17.821,5.673 4.811,0 8.74,-1.205 11.783,-3.61 3.044,-2.405 4.566,-6.209 4.566,-11.413 l 0,-25.261 z" /></g><g
           transform="translate(890.5938,344.8682)"
           id="g428"><path
             id="path430"
             style="fill:#ffffff;fill-opacity:1;fill-rule:nonzero;stroke:none"
             d="m 0,0 c 0,-3.215 0.895,-5.841 2.688,-7.88 1.792,-2.035 3.964,-3.055 6.518,-3.055 2.552,0 4.786,1.02 6.702,3.055 1.915,2.039 2.872,4.651 2.872,7.844 0,3.191 -0.933,5.867 -2.8,8.029 -1.866,2.159 -4.098,3.238 -6.701,3.238 C 6.676,11.231 4.48,10.164 2.688,8.028 0.895,5.894 0,3.218 0,0 m 12.152,20.512 c 4.614,0 8.727,-1.926 12.335,-5.781 3.609,-3.853 5.413,-8.704 5.413,-14.546 0,-5.841 -1.804,-10.727 -5.413,-14.655 -3.608,-3.928 -7.831,-5.891 -12.667,-5.891 -4.836,0 -8.726,1.939 -11.673,5.82 l 0,-19.52 -11.045,0 0,53.91 11.045,0 0,-4.418 c 3.389,3.386 7.39,5.081 12.005,5.081" /></g><g
           transform="translate(951.4541,354.333)"
           id="g432"><path
             id="path434"
             style="fill:#ffffff;fill-opacity:1;fill-rule:nonzero;stroke:none"
             d="m 0,0 c -1.522,1.275 -3.377,1.912 -5.562,1.912 -2.185,0 -4.186,-0.66 -6.001,-1.986 -1.818,-1.326 -2.872,-3.116 -3.167,-5.376 l 17.38,0 C 2.403,-3.095 1.521,-1.275 0,0 m 10.604,-23.495 c -4.468,-4.223 -9.708,-6.331 -15.723,-6.331 -6.014,0 -10.985,1.852 -14.913,5.558 -3.929,3.708 -5.891,8.677 -5.891,14.916 0,6.233 1.999,11.193 6.002,14.874 4,3.682 8.726,5.525 14.176,5.525 5.449,0 10.076,-1.647 13.883,-4.936 3.803,-3.289 5.707,-7.805 5.707,-13.549 l 0,-5.893 -28.869,0 c 0.343,-2.158 1.473,-3.928 3.388,-5.302 1.914,-1.374 4.073,-2.06 6.48,-2.06 3.879,0 7.069,1.298 9.574,3.901 l 6.186,-6.703 z" /></g></g></g><g
       id="g436"><g
         clip-path="url(#clipPath440)"
         id="g438"><g
           transform="translate(1299.9199,163.3984)"
           id="g444"><path
             id="path446"
             style="fill:#ffc36c;fill-opacity:1;fill-rule:nonzero;stroke:none"
             d="m 0,0 c -2.318,-8.58 -8.936,-15.05 -15.392,-15.05 -0.676,0 -1.346,0.091 -2.004,0.235 l 0,34.438 c 2.194,1.529 4.585,2.408 6.957,2.408 0.829,0 1.652,-0.109 2.446,-0.324 3.17,-0.856 5.783,-3.39 7.359,-7.133 C 1.162,10.309 1.388,5.133 0,0 m 10.602,19.305 c -3.066,7.28 -8.539,12.312 -15.414,14.17 -1.831,0.496 -3.724,0.746 -5.627,0.746 -2.374,0 -4.707,-0.381 -6.957,-1.093 l 0,19.38 -97.524,0 0,-102.709 c 0,-10.602 8.596,-19.197 19.198,-19.197 l 59.129,0 c 10.603,0 19.197,8.595 19.197,19.197 l 0,23.065 c 0.667,-0.062 1.333,-0.104 2.004,-0.104 12.163,0 23.331,9.893 27.161,24.059 2.092,7.744 1.677,15.728 -1.167,22.486" /></g><g
           transform="translate(1282.5244,113.1973)"
           id="g448"><path
             id="path450"
             style="fill:#f4af53;fill-opacity:1;fill-rule:nonzero;stroke:none"
             d="m 0,0 0,102.709 -23.026,0 0,-121.906 3.829,0 C -8.595,-19.197 0,-10.602 0,0" /></g><g
           transform="translate(1243.4063,302.2305)"
           id="g452"><path
             id="path454"
             style="fill:#7b5262;fill-opacity:1;fill-rule:nonzero;stroke:none"
             d="m 0,0 c 0,0 -12.167,-18.987 0,-37.975 15.391,-24.016 -12.167,-37.973 -12.167,-37.973 0,0 15.39,13.957 0,37.973 C -24.334,-18.987 0,0 0,0" /></g><g
           transform="translate(1209.7354,160.9961)"
           id="g456"><path
             id="path458"
             style="fill:#f4b664;fill-opacity:1;fill-rule:nonzero;stroke:none"
             d="m 0,0 c -7.433,1.829 -12.174,3.417 -14.227,4.761 -2.054,1.344 -3.081,3.154 -3.081,5.433 0,2.277 0.841,4.106 2.521,5.489 1.681,1.38 3.976,2.072 6.89,2.072 7.242,0 14.262,-2.576 21.059,-7.729 l 8.849,12.77 c -3.884,3.285 -8.44,5.825 -13.666,7.617 -5.228,1.793 -10.456,2.689 -15.683,2.689 -6.749,0 -12.54,-1.456 -17.397,-4.331 l 0,-38.113 c 4.004,-2.201 9.239,-4.073 15.717,-5.612 5.749,-1.419 9.595,-2.819 11.538,-4.2 1.941,-1.383 2.913,-3.249 2.913,-5.602 0,-2.352 -0.916,-4.22 -2.745,-5.6 -1.831,-1.383 -4.351,-2.073 -7.561,-2.073 -6.152,0 -12.774,2.731 -19.862,8.177 l 0,-19.375 c 6.129,-2.837 12.636,-4.261 19.526,-4.261 8.587,0 15.515,2.185 20.779,6.554 5.265,4.368 7.898,10.063 7.898,17.082 0,7.02 -2.056,12.359 -6.161,16.019 C 13.198,-4.575 7.43,-1.83 0,0" /></g><g
           transform="translate(200.2363,344.3232)"
           id="g460"><path
             id="path462"
             style="fill:#7fd6af;fill-opacity:1;fill-rule:nonzero;stroke:none"
             d="M 0,0 5.226,-0.385 0.973,-57.871 -4.253,-57.483 0,0 Z" /></g><g
           transform="translate(184.8545,287.6631)"
           id="g464"><path
             id="path466"
             style="fill:#ededed;fill-opacity:1;fill-rule:nonzero;stroke:none"
             d="M 0,0 16.936,-1.254 16.549,-6.479 -0.386,-5.227 0,0 Z" /></g><g
           transform="translate(185.1455,282.3867)"
           id="g468"><path
             id="path470"
             style="fill:#ffd2e4;fill-opacity:1;fill-rule:nonzero;stroke:none"
             d="m 0,0 -0.408,-5.514 c -0.202,-2.727 1.846,-5.103 4.573,-5.304 l 5.801,-0.43 c 2.728,-0.2 5.102,1.847 5.304,4.572 L 15.678,-1.161 0,0 Z" /></g><g
           transform="translate(195.0103,344.71)"
           id="g472"><path
             id="path474"
             style="fill:#5fc79a;fill-opacity:1;fill-rule:nonzero;stroke:none"
             d="M 0,0 5.226,-0.387 0.973,-57.87 -4.252,-57.483 0,0 Z" /></g><g
           transform="translate(189.7842,345.0986)"
           id="g476"><path
             id="path478"
             style="fill:#52b287;fill-opacity:1;fill-rule:nonzero;stroke:none"
             d="M 0,0 5.226,-0.389 0.974,-57.872 -4.252,-57.488 0,0 Z" /></g><g
           transform="translate(185.0811,281.5156)"
           id="g480"><path
             id="path482"
             style="fill:#f2bbd2;fill-opacity:1;fill-rule:nonzero;stroke:none"
             d="M 0,0 0.064,0.871 15.742,-0.29 15.678,-1.16 0,0 Z" /></g><g
           id="g484"><g
             id="g486" /><g
             id="g492"><g
               id="g494"
               clip-path="url(#clipPath488)"><g
                 id="g496"
                 transform="translate(185.5322,287.6104)"><path
                   id="path498"
                   style="fill:#f4e2ce;fill-opacity:1;fill-rule:nonzero;stroke:none"
                   d="M 0,0 0.064,0.871 15.743,-0.286 15.677,-1.158 0,0 Z" /></g></g></g></g><g
           transform="translate(205.4624,343.9385)"
           id="g500"><path
             id="path502"
             style="fill:#ffeede;fill-opacity:1;fill-rule:nonzero;stroke:none"
             d="M 0,0 -15.678,1.16 -6.636,16.837 0,0 Z" /></g><g
           transform="translate(201.1968,354.7627)"
           id="g504"><path
             id="path506"
             style="fill:#727272;fill-opacity:1;fill-rule:nonzero;stroke:none"
             d="M 0,0 -2.371,6.013 -5.6,0.414 0,0 Z" /></g><g
           transform="translate(130.0522,327.4395)"
           id="g508"><path
             id="path510"
             style="fill:#ffd592;fill-opacity:1;fill-rule:nonzero;stroke:none"
             d="M 0,0 4.583,2.541 32.541,-47.866 27.958,-50.408 0,0 Z" /></g><g
           transform="translate(148.2515,271.6182)"
           id="g512"><path
             id="path514"
             style="fill:#ededed;fill-opacity:1;fill-rule:nonzero;stroke:none"
             d="M 0,0 14.851,8.236 17.393,3.654 2.542,-4.582 0,0 Z" /></g><g
           transform="translate(151.3872,267.3652)"
           id="g516"><path
             id="path518"
             style="fill:#ffd2e4;fill-opacity:1;fill-rule:nonzero;stroke:none"
             d="M 0,0 2.682,-4.836 C 4.008,-7.228 7.021,-8.09 9.413,-6.764 l 5.087,2.822 c 2.393,1.327 3.256,4.34 1.929,6.731 L 13.747,7.625 0,0 Z" /></g><g
           transform="translate(125.4697,324.8975)"
           id="g520"><path
             id="path522"
             style="fill:#ffc36c;fill-opacity:1;fill-rule:nonzero;stroke:none"
             d="M 0,0 4.583,2.542 32.541,-47.866 27.958,-50.408 0,0 Z" /></g><g
           transform="translate(120.8872,322.3555)"
           id="g524"><path
             id="path526"
             style="fill:#f4af53;fill-opacity:1;fill-rule:nonzero;stroke:none"
             d="M 0,0 4.583,2.542 32.541,-47.866 27.958,-50.408 0,0 Z" /></g><g
           transform="translate(151.8105,266.6016)"
           id="g528"><path
             id="path530"
             style="fill:#f2bbd2;fill-opacity:1;fill-rule:nonzero;stroke:none"
             d="M 0,0 -0.423,0.764 13.324,8.389 13.748,7.624 0,0 Z" /></g><g
           id="g532"><g
             id="g534" /><g
             id="g540"><g
               id="g542"
               clip-path="url(#clipPath536)"><g
                 id="g544"
                 transform="translate(148.8452,271.9473)"><path
                   id="path546"
                   style="fill:#f4e2ce;fill-opacity:1;fill-rule:nonzero;stroke:none"
                   d="M 0,0 -0.423,0.764 13.324,8.39 13.748,7.626 0,0 Z" /></g></g></g></g><g
           transform="translate(134.6348,329.9805)"
           id="g548"><path
             id="path550"
             style="fill:#ffeede;fill-opacity:1;fill-rule:nonzero;stroke:none"
             d="M 0,0 -13.748,-7.625 -14.781,10.446 0,0 Z" /></g><g
           transform="translate(125.1328,336.6953)"
           id="g552"><path
             id="path554"
             style="fill:#727272;fill-opacity:1;fill-rule:nonzero;stroke:none"
             d="M 0,0 -5.279,3.731 -4.91,-2.724 0,0 Z" /></g><g
           transform="translate(150.9531,285.6514)"
           id="g556"><path
             id="path558"
             style="fill:#7fd6af;fill-opacity:1;fill-rule:nonzero;stroke:none"
             d="m 0,0 -5.189,-0.727 -7.996,57.085 5.189,0.727 L 0,0 Z" /></g><g
           transform="translate(154.0093,344.2852)"
           id="g560"><path
             id="path562"
             style="fill:#ededed;fill-opacity:1;fill-rule:nonzero;stroke:none"
             d="M 0,0 -16.818,-2.356 -17.545,2.834 -0.727,5.189 0,0 Z" /></g><g
           transform="translate(152.6099,349.3809)"
           id="g564"><path
             id="path566"
             style="fill:#ffd2e4;fill-opacity:1;fill-rule:nonzero;stroke:none"
             d="m 0,0 -0.768,5.475 c -0.379,2.708 -2.881,4.597 -5.589,4.216 L -12.12,8.885 c -2.708,-0.38 -4.595,-2.883 -4.216,-5.59 L -15.569,-2.181 0,0 Z" /></g><g
           transform="translate(156.1426,286.3779)"
           id="g568"><path
             id="path570"
             style="fill:#5fc79a;fill-opacity:1;fill-rule:nonzero;stroke:none"
             d="m 0,0 -5.189,-0.727 -7.996,57.085 5.189,0.727 L 0,0 Z" /></g><g
           transform="translate(161.332,287.1055)"
           id="g572"><path
             id="path574"
             style="fill:#52b287;fill-opacity:1;fill-rule:nonzero;stroke:none"
             d="m 0,0 -5.189,-0.728 -7.996,57.085 5.189,0.728 L 0,0 Z" /></g><g
           transform="translate(152.4878,350.2451)"
           id="g576"><path
             id="path578"
             style="fill:#f2bbd2;fill-opacity:1;fill-rule:nonzero;stroke:none"
             d="M 0,0 0.122,-0.864 -15.447,-3.045 -15.568,-2.181 0,0 Z" /></g><g
           id="g580"><g
             id="g582" /><g
             id="g588"><g
               id="g590"
               clip-path="url(#clipPath584)"><g
                 id="g592"
                 transform="translate(153.3364,344.1904)"><path
                   id="path594"
                   style="fill:#f4e2ce;fill-opacity:1;fill-rule:nonzero;stroke:none"
                   d="m 0,0 0.121,-0.864 -15.569,-2.182 -0.12,0.865 L 0,0 Z" /></g></g></g></g><g
           transform="translate(145.7637,284.9248)"
           id="g596"><path
             id="path598"
             style="fill:#ffeede;fill-opacity:1;fill-rule:nonzero;stroke:none"
             d="M 0,0 15.568,2.181 10.046,-15.055 0,0 Z" /></g><g
           transform="translate(152.2212,275.2461)"
           id="g600"><path
             id="path602"
             style="fill:#727272;fill-opacity:1;fill-rule:nonzero;stroke:none"
             d="M 0,0 3.588,-5.376 5.561,0.779 0,0 Z" /></g><g
           transform="translate(226.3105,333.3145)"
           id="g604"><path
             id="path606"
             style="fill:#ededed;fill-opacity:1;fill-rule:nonzero;stroke:none"
             d="m 0,0 -1.106,0.13 -0.238,-2.025 1.106,-0.129 c 1.701,-0.201 2.924,-1.748 2.724,-3.449 l -3.21,-27.322 -1.518,0.179 0.939,-5.113 -0.009,-0.078 2.024,-0.238 L 4.51,-5.71 C 4.841,-2.893 2.817,-0.33 0,0" /></g><g
           transform="translate(215.1948,275.2607)"
           id="g608"><path
             id="path610"
             style="fill:#3088c4;fill-opacity:1;fill-rule:nonzero;stroke:none"
             d="M 0,0 -10.409,1.224 -3.685,58.473 6.724,57.25 0,0 Z" /></g><g
           transform="translate(227.7495,331.8262)"
           id="g612"><path
             id="path614"
             style="fill:#ededed;fill-opacity:1;fill-rule:nonzero;stroke:none"
             d="M 0,0 -16.866,1.98 -16.713,3.281 0.153,1.301 0,0 Z" /></g><g
           transform="translate(227.2754,333.2012)"
           id="g616"><path
             id="path618"
             style="fill:#3088c4;fill-opacity:1;fill-rule:nonzero;stroke:none"
             d="m 0,0 1.104,9.395 c 0.319,2.715 -1.624,5.175 -4.34,5.494 l -5.778,0.678 c -2.716,0.32 -5.176,-1.624 -5.495,-4.339 L -15.612,1.834 0,0 Z" /></g><g
           transform="translate(220.3989,274.6494)"
           id="g620"><path
             id="path622"
             style="fill:#1d71b8;fill-opacity:1;fill-rule:nonzero;stroke:none"
             d="M 0,0 -5.204,0.611 1.52,57.861 6.724,57.25 0,0 Z" /></g><g
           id="g624"><g
             id="g626" /><g
             id="g632"><g
               id="g634"
               clip-path="url(#clipPath628)"><g
                 id="g636"
                 transform="translate(227.123,331.8994)"><path
                   id="path638"
                   style="fill:#cee5f2;fill-opacity:1;fill-rule:nonzero;stroke:none"
                   d="M 0,0 -0.102,-0.866 -15.715,0.967 -15.613,1.834 0,0 Z" /></g></g></g></g><g
           transform="translate(214.1582,264.8311)"
           id="g640"><path
             id="path642"
             style="fill:#489dcc;fill-opacity:1;fill-rule:nonzero;stroke:none"
             d="M 0,0 6.241,9.818 -9.373,11.653 -5.577,0.655 0,0 Z" /></g><g
           transform="translate(208.8608,265.4531)"
           id="g644"><path
             id="path646"
             style="fill:#489dcc;fill-opacity:1;fill-rule:nonzero;stroke:none"
             d="M 0,0 1.897,-5.499 5.019,-0.59 0,0 Z" /></g><g
           transform="translate(208.2651,266.4023)"
           id="g648"><path
             id="path650"
             style="fill:#1d71b8;fill-opacity:1;fill-rule:nonzero;stroke:none"
             d="M 0,0 0.316,-0.916 5.893,-1.571 6.413,-0.752 0,0 Z" /></g><g
           transform="translate(224.0396,348.0898)"
           id="g652"><path
             id="path654"
             style="fill:#1d71b8;fill-opacity:1;fill-rule:nonzero;stroke:none"
             d="m 0,0 -0.38,0.045 -1.681,-14.312 5.297,-0.622 1.104,9.395 C 4.659,-2.778 2.716,-0.318 0,0" /></g><g
           id="g656"><g
             id="g658" /><g
             id="g664"><g
               id="g666"
               clip-path="url(#clipPath660)"><g
                 id="g668"
                 transform="translate(227.3779,334.0684)"><path
                   id="path670"
                   style="fill:#cee5f2;fill-opacity:1;fill-rule:nonzero;stroke:none"
                   d="M 0,0 -0.103,-0.867 -15.715,0.967 -15.613,1.834 0,0 Z" /></g></g></g></g><g
           transform="translate(159.6255,312.7773)"
           id="g672"><path
             id="path674"
             style="fill:#ffd592;fill-opacity:1;fill-rule:nonzero;stroke:none"
             d="M 0,0 5.125,1.097 17.175,-55.271 12.051,-56.368 0,0 Z" /></g><g
           transform="translate(160.7642,254.0771)"
           id="g676"><path
             id="path678"
             style="fill:#ededed;fill-opacity:1;fill-rule:nonzero;stroke:none"
             d="M 0,0 16.606,3.55 17.702,-1.575 1.096,-5.125 0,0 Z" /></g><g
           transform="translate(162.5239,249.0947)"
           id="g680"><path
             id="path682"
             style="fill:#ffd2e4;fill-opacity:1;fill-rule:nonzero;stroke:none"
             d="m 0,0 1.155,-5.409 c 0.572,-2.673 3.204,-4.377 5.877,-3.805 l 5.69,1.217 c 2.675,0.571 4.379,3.201 3.807,5.875 L 15.373,3.286 0,0 Z" /></g><g
           transform="translate(154.5005,311.6826)"
           id="g684"><path
             id="path686"
             style="fill:#ffc36c;fill-opacity:1;fill-rule:nonzero;stroke:none"
             d="M 0,0 5.125,1.095 17.176,-55.273 12.052,-56.368 0,0 Z" /></g><g
           transform="translate(149.376,310.5879)"
           id="g688"><path
             id="path690"
             style="fill:#f4af53;fill-opacity:1;fill-rule:nonzero;stroke:none"
             d="M 0,0 5.125,1.095 17.177,-55.273 12.052,-56.369 0,0 Z" /></g><g
           transform="translate(162.7061,248.2412)"
           id="g692"><path
             id="path694"
             style="fill:#f2bbd2;fill-opacity:1;fill-rule:nonzero;stroke:none"
             d="M 0,0 -0.182,0.854 15.19,4.14 15.374,3.285 0,0 Z" /></g><g
           id="g696"><g
             id="g698" /><g
             id="g704"><g
               id="g706"
               clip-path="url(#clipPath700)"><g
                 id="g708"
                 transform="translate(161.4282,254.2188)"><path
                   id="path710"
                   style="fill:#f4e2ce;fill-opacity:1;fill-rule:nonzero;stroke:none"
                   d="M 0,0 -0.183,0.854 15.19,4.141 15.373,3.287 0,0 Z" /></g></g></g></g><g
           transform="translate(164.75,313.874)"
           id="g712"><path
             id="path714"
             style="fill:#ffeede;fill-opacity:1;fill-rule:nonzero;stroke:none"
             d="M 0,0 -15.374,-3.286 -11.095,14.301 0,0 Z" /></g><g
           transform="translate(157.6172,323.0664)"
           id="g716"><path
             id="path718"
             style="fill:#727272;fill-opacity:1;fill-rule:nonzero;stroke:none"
             d="M 0,0 -3.962,5.108 -5.49,-1.174 0,0 Z" /></g><g
           transform="translate(176.4082,266.5801)"
           id="g720"><path
             id="path722"
             style="fill:#ffd592;fill-opacity:1;fill-rule:nonzero;stroke:none"
             d="M 0,0 -5.232,0.287 -2.064,57.843 3.168,57.556 0,0 Z" /></g><g
           transform="translate(190.7197,323.5225)"
           id="g724"><path
             id="path726"
             style="fill:#ededed;fill-opacity:1;fill-rule:nonzero;stroke:none"
             d="M 0,0 -16.957,0.934 -16.668,6.165 0.288,5.231 0,0 Z" /></g><g
           transform="translate(190.3291,328.791)"
           id="g728"><path
             id="path730"
             style="fill:#ffd2e4;fill-opacity:1;fill-rule:nonzero;stroke:none"
             d="m 0,0 0.305,5.521 c 0.151,2.731 -1.941,5.065 -4.672,5.216 l -5.809,0.321 c -2.731,0.15 -5.066,-1.942 -5.216,-4.672 L -15.696,0.865 0,0 Z" /></g><g
           transform="translate(181.6396,266.292)"
           id="g732"><path
             id="path734"
             style="fill:#ffc36c;fill-opacity:1;fill-rule:nonzero;stroke:none"
             d="M 0,0 -5.231,0.288 -2.063,57.844 3.169,57.555 0,0 Z" /></g><g
           transform="translate(186.8721,266.0039)"
           id="g736"><path
             id="path738"
             style="fill:#f4af53;fill-opacity:1;fill-rule:nonzero;stroke:none"
             d="M 0,0 -5.232,0.288 -2.063,57.843 3.17,57.555 0,0 Z" /></g><g
           transform="translate(190.3774,329.6641)"
           id="g740"><path
             id="path742"
             style="fill:#f2bbd2;fill-opacity:1;fill-rule:nonzero;stroke:none"
             d="m 0,0 -0.048,-0.873 -15.696,0.865 0.047,0.871 L 0,0 Z" /></g><g
           id="g744"><g
             id="g746" /><g
             id="g752"><g
               id="g754"
               clip-path="url(#clipPath748)"><g
                 id="g756"
                 transform="translate(190.042,323.5586)"><path
                   id="path758"
                   style="fill:#f4e2ce;fill-opacity:1;fill-rule:nonzero;stroke:none"
                   d="m 0,0 -0.048,-0.872 -15.698,0.864 0.048,0.872 L 0,0 Z" /></g></g></g></g><g
           transform="translate(171.1758,266.8672)"
           id="g760"><path
             id="path762"
             style="fill:#ffeede;fill-opacity:1;fill-rule:nonzero;stroke:none"
             d="M 0,0 15.696,-0.863 6.951,-16.71 0,0 Z" /></g><g
           transform="translate(175.6445,256.127)"
           id="g764"><path
             id="path766"
             style="fill:#727272;fill-opacity:1;fill-rule:nonzero;stroke:none"
             d="M 0,0 2.482,-5.97 5.605,-0.311 0,0 Z" /></g><g
           transform="translate(137.9341,291.6191)"
           id="g768"><path
             id="path770"
             style="fill:#ea2c4e;fill-opacity:1;fill-rule:nonzero;stroke:none"
             d="m 0,0 85.452,0 -10.681,-85.452 -64.09,0 L 0,0 Z" /></g><g
           transform="translate(202.0234,291.6191)"
           id="g772"><path
             id="path774"
             style="fill:#d82149;fill-opacity:1;fill-rule:nonzero;stroke:none"
             d="m 0,0 -10.682,-85.452 21.364,0 L 21.363,0 0,0 Z" /></g><g
           id="g776"><g
             id="g778" /><g
             id="g784"><g
               style="opacity:0.30000299"
               id="g786"
               clip-path="url(#clipPath780)"><g
                 id="g788"
                 transform="translate(217.9194,247.8828)"><path
                   id="path790"
                   style="fill:#b71842;fill-opacity:1;fill-rule:nonzero;stroke:none"
                   d="M 0,0 3.246,25.969 -76.972,19.632 -75.261,5.945 0,0 Z" /></g></g></g></g><g
           id="g792"><g
             id="g794" /><g
             id="g800"><g
               style="opacity:0.30000299"
               id="g802"
               clip-path="url(#clipPath796)"><g
                 id="g804"
                 transform="translate(217.9443,248.0801)"><path
                   id="path806"
                   style="fill:#b71842;fill-opacity:1;fill-rule:nonzero;stroke:none"
                   d="m 0,0 -73.839,-5.833 1.748,-13.983 68.933,-5.446 L 0,0 Z" /></g></g></g></g><g
           transform="translate(351.5669,247.4258)"
           id="g808"><path
             id="path810"
             style="fill:#8a6171;fill-opacity:1;fill-rule:nonzero;stroke:none"
             d="m 0,0 c -0.679,-19.772 -5.19,-98.92 -7.397,-98.844 -2.208,0.076 -1.277,79.346 -0.599,99.118 0.68,19.774 3.02,35.74 5.228,35.666 C -0.561,35.863 0.679,19.772 0,0" /></g><g
           transform="translate(352.8364,284.3965)"
           id="g812"><path
             id="path814"
             style="fill:#c6af81;fill-opacity:1;fill-rule:nonzero;stroke:none"
             d="m 0,0 c -0.239,-6.979 -2.224,-12.573 -4.432,-12.496 -2.208,0.074 -3.802,5.794 -3.563,12.771 0.24,6.979 4.721,20.923 4.721,20.923 C -3.274,21.198 0.24,6.98 0,0" /></g><g
           transform="translate(351.7217,253.7451)"
           id="g816"><path
             id="path818"
             style="fill:#dadada;fill-opacity:1;fill-rule:nonzero;stroke:none"
             d="m 0,0 c 0.122,8.404 -0.119,15.805 -0.636,21.108 l -5.153,0.177 C -6.668,16.03 -7.416,8.663 -7.871,0.271 L 0,0 Z" /></g><g
           transform="translate(382.8774,238.6504)"
           id="g820"><path
             id="path822"
             style="fill:#5fc79a;fill-opacity:1;fill-rule:nonzero;stroke:none"
             d="m 0,0 c -5.374,-22.647 -29.117,-112.854 -31.848,-112.207 -2.733,0.649 16.581,91.906 21.955,114.556 C -4.519,24.997 2.052,42.833 4.784,42.186 7.516,41.537 5.374,22.65 0,0" /></g><g
           transform="translate(392.9263,281.002)"
           id="g824"><path
             id="path826"
             style="fill:#a58062;fill-opacity:1;fill-rule:nonzero;stroke:none"
             d="m 0,0 c -1.897,-7.994 -5.649,-13.949 -8.381,-13.301 -2.732,0.648 -3.409,7.655 -1.512,15.648 1.897,7.995 10.67,22.95 10.67,22.95 C 0.777,25.297 1.897,7.994 0,0" /></g><g
           transform="translate(384.5176,245.9063)"
           id="g828"><path
             id="path830"
             style="fill:#dadada;fill-opacity:1;fill-rule:nonzero;stroke:none"
             d="m 0,0 c 2.076,9.669 3.471,18.271 4.042,24.523 l -6.375,1.513 C -4.632,20.195 -7.25,11.882 -9.739,2.312 L 0,0 Z" /></g><g
           transform="translate(374.2031,271.623)"
           id="g832"><path
             id="path834"
             style="fill:#3088c4;fill-opacity:1;fill-rule:nonzero;stroke:none"
             d="m 0,0 c -2.87,-23.97 -16.631,-119.733 -19.419,-119.4 -2.788,0.335 6.453,96.637 9.324,120.61 2.871,23.973 7.458,43.137 10.246,42.804 C 2.938,43.679 2.871,23.975 0,0" /></g><g
           transform="translate(379.5713,316.4482)"
           id="g836"><path
             id="path838"
             style="fill:#846b5a;fill-opacity:1;fill-rule:nonzero;stroke:none"
             d="m 0,0 c -1.013,-8.46 -4.094,-15.048 -6.883,-14.714 -2.787,0.333 -4.225,7.463 -3.212,15.924 1.013,8.462 8.105,24.928 8.105,24.928 0,0 3.004,-17.676 1.99,-26.138" /></g><g
           transform="translate(375.042,279.293)"
           id="g840"><path
             id="path842"
             style="fill:#dadada;fill-opacity:1;fill-rule:nonzero;stroke:none"
             d="m 0,0 c 1.009,10.207 1.457,19.233 1.342,25.74 l -6.506,0.779 C -6.813,20.225 -8.508,11.347 -9.938,1.191 L 0,0 Z" /></g><g
           transform="translate(300.2783,238.6406)"
           id="g844"><path
             id="path846"
             style="fill:#5fc79a;fill-opacity:1;fill-rule:nonzero;stroke:none"
             d="m 0,0 c 1.502,-18.509 5.248,-92.844 2.45,-93.07 -2.8,-0.227 -11.083,73.739 -12.584,92.248 -1.502,18.51 -0.45,33.7 2.348,33.927 C -4.987,33.332 -1.501,18.511 0,0" /></g><g
           transform="translate(297.4707,273.251)"
           id="g848"><path
             id="path850"
             style="fill:#a58062;fill-opacity:1;fill-rule:nonzero;stroke:none"
             d="m 0,0 c 0.53,-6.532 -1.309,-12.013 -4.108,-12.239 -2.798,-0.228 -5.496,4.885 -6.026,11.418 -0.53,6.533 3.467,20.126 3.467,20.126 0,0 6.138,-12.771 6.667,-19.305" /></g><g
           transform="translate(299.7197,244.5488)"
           id="g852"><path
             id="path854"
             style="fill:#dadada;fill-opacity:1;fill-rule:nonzero;stroke:none"
             d="m 0,0 c -0.849,7.845 -2.036,14.706 -3.322,19.576 l -6.531,-0.53 C -10.337,14.032 -10.403,7.069 -9.977,-0.809 L 0,0 Z" /></g><g
           transform="translate(278.5195,251.21)"
           id="g856"><path
             id="path858"
             style="fill:#ea2c4e;fill-opacity:1;fill-rule:nonzero;stroke:none"
             d="M 0,0 C 10.867,-22.102 51.693,-111.971 48.351,-113.614 45.009,-115.256 -1.234,-28.052 -12.101,-5.95 -22.968,16.151 -29.069,35.399 -25.728,37.044 -22.386,38.686 -10.868,22.102 0,0" /></g><g
           transform="translate(258.1997,292.5352)"
           id="g860"><path
             id="path862"
             style="fill:#c6af81;fill-opacity:1;fill-rule:nonzero;stroke:none"
             d="m 0,0 c 3.835,-7.8 4.236,-15.456 0.894,-17.099 -3.342,-1.642 -9.16,3.349 -12.995,11.149 -3.836,7.802 -5.524,26.515 -5.524,26.515 0,0 13.789,-12.763 17.625,-20.565" /></g><g
           transform="translate(274.9531,258.2256)"
           id="g864"><path
             id="path866"
             style="fill:#dadada;fill-opacity:1;fill-rule:nonzero;stroke:none"
             d="m 0,0 c -4.869,9.263 -9.674,17.149 -13.633,22.528 l -7.797,-3.834 c 1.844,-6.419 5.155,-15.041 9.517,-24.551 L 0,0 Z" /></g><g
           transform="translate(281.5801,214.8867)"
           id="g868"><path
             id="path870"
             style="fill:#ffc36c;fill-opacity:1;fill-rule:nonzero;stroke:none"
             d="m 0,0 95.007,0 -11.876,-120.72 -71.256,0 L 0,0 Z" /></g><g
           transform="translate(352.8354,214.8867)"
           id="g872"><path
             id="path874"
             style="fill:#f4af53;fill-opacity:1;fill-rule:nonzero;stroke:none"
             d="m 0,0 -11.876,-120.72 23.752,0 L 23.751,0 0,0 Z" /></g><g
           id="g876"><g
             id="g878" /><g
             id="g884"><g
               style="opacity:0.30000299"
               id="g886"
               clip-path="url(#clipPath880)"><g
                 id="g888"
                 transform="translate(370.5088,153.0977)"><path
                   id="path890"
                   style="fill:#e29c50;fill-opacity:1;fill-rule:nonzero;stroke:none"
                   d="M 0,0 3.609,36.688 -85.579,27.735 -83.677,8.4 0,0 Z" /></g></g></g></g><g
           id="g892"><g
             id="g894" /><g
             id="g900"><g
               style="opacity:0.30000299"
               id="g902"
               clip-path="url(#clipPath896)"><g
                 id="g904"
                 transform="translate(370.5366,153.3779)"><path
                   id="path906"
                   style="fill:#e29c50;fill-opacity:1;fill-rule:nonzero;stroke:none"
                   d="m 0,0 -82.095,-8.24 1.943,-19.754 76.641,-7.694 L 0,0 Z" /></g></g></g></g><g
           id="g908"><g
             id="g910" /><g
             id="g916"><g
               style="opacity:0.10000598"
               id="g918"
               clip-path="url(#clipPath912)"><g
                 id="g920"
                 transform="translate(1169.2051,94)"><path
                   id="path922"
                   style="fill:#ffffff;fill-opacity:1;fill-rule:nonzero;stroke:none"
                   d="M 0,0 99.828,447.686 -11.211,503.772 -449.541,0 0,0 Z" /></g></g></g></g></g></g></g></svg>