<svg id="SvgjsSvg1027" xmlns="http://www.w3.org/2000/svg" version="1.1" xmlns:xlink="http://www.w3.org/1999/xlink" xmlns:svgjs="http://svgjs.com/svgjs" width="71" height="23"><defs id="SvgjsDefs1028"></defs><path id="SvgjsPath1029" d="M279.96 74.0629C279.096 74.5593 278.01599999999996 74.80669999999999 276.71999999999997 74.80669999999999C275.424 74.80669999999999 274.308 74.3308 273.37199999999996 73.3791C272.436 72.42699999999999 271.96799999999996 71.15899999999999 271.96799999999996 69.57509999999999C271.96799999999996 67.99119999999999 272.45599999999996 66.71509999999999 273.43199999999996 65.7469C274.40799999999996 64.7794 275.60799999999995 64.29429999999999 277.032 64.29429999999999C277.768 64.29429999999999 278.452 64.41919999999999 279.084 64.66699999999999C279.716 64.91519999999998 280.408 65.36729999999999 281.16 66.02329999999999L283.10400000000004 63.21529999999999C281.32800000000003 61.63099999999999 279.23600000000005 60.83879999999999 276.82800000000003 60.83879999999999C274.42 60.83879999999999 272.36400000000003 61.67089999999999 270.66 63.33489999999999C268.956 64.999 268.10400000000004 67.07529999999998 268.10400000000004 69.56259999999999C268.10400000000004 72.05109999999999 268.94000000000005 74.11079999999998 270.612 75.74309999999998C272.28400000000005 77.37499999999999 274.35200000000003 78.19089999999998 276.81600000000003 78.19089999999998C279.76000000000005 78.19089999999998 282.064 77.26329999999999 283.728 75.40709999999999L283.728 69.45539999999998L279.96000000000004 69.45539999999998ZM314.184 65.0869L310.584 65.0869L310.584 82.6553L314.184 82.6553L314.184 76.29509999999999C315.144 77.55909999999999 316.411 78.19089999999998 317.988 78.19089999999998C319.563 78.19089999999998 320.94 77.55099999999999 322.116 76.27129999999998C323.292 74.99119999999998 323.88 73.39889999999998 323.88 71.49499999999998C323.88 69.59079999999997 323.292 68.01169999999998 322.116 66.75499999999998C320.94 65.49909999999998 319.599 64.87129999999998 318.096 64.87129999999998C316.592 64.87129999999998 315.288 65.42289999999997 314.184 66.52689999999998ZM307.536 69.7673C307.536 68.07140000000001 307.04 66.83120000000001 306.048 66.0475C305.056 65.263 303.776 64.8713 302.208 64.8713C300.03200000000004 64.8713 298.096 65.48740000000001 296.40000000000003 66.71910000000001L298.00800000000004 69.04680000000002C298.48800000000006 68.67900000000002 299.076 68.37110000000001 299.77200000000005 68.12290000000002C300.4680000000001 67.87510000000002 301.12800000000004 67.75140000000002 301.75200000000007 67.75140000000002C303.2080000000001 67.75140000000002 303.9360000000001 68.43920000000001 303.9360000000001 69.81520000000002L303.9360000000001 69.88700000000001L301.2480000000001 69.88700000000001C299.5840000000001 69.88700000000001 298.2720000000001 70.21490000000001 297.3120000000001 70.87090000000002C296.35200000000015 71.52770000000002 295.8720000000001 72.51520000000002 295.8720000000001 73.83480000000002C295.8720000000001 75.15560000000002 296.3360000000001 76.21050000000001 297.2640000000001 77.00310000000002C298.1920000000001 77.79440000000002 299.34000000000015 78.19090000000001 300.70800000000014 78.19090000000001C302.07600000000014 78.19090000000001 303.22400000000016 77.60700000000001 304.15200000000016 76.43900000000001L304.15200000000016 77.99910000000001L307.5360000000002 77.99910000000001ZM294.192 68.2547L294.168 64.8713C293.448 64.8874 292.74 65.0792 292.044 65.4467C291.34799999999996 65.81540000000001 290.768 66.263 290.304 66.7913L290.304 65.0869L286.70399999999995 65.0869L286.70399999999995 77.9991L290.304 77.9991L290.304 72.40729999999999C290.304 71.15899999999999 290.568 70.1553 291.09599999999995 69.395C291.62399999999997 68.63589999999999 292.4239999999999 68.2547 293.4959999999999 68.2547ZM315.012 68.9397C315.596 68.243 316.311 67.8949 317.16 67.8949C318.00800000000004 67.8949 318.735 68.24740000000001 319.34400000000005 68.95100000000001C319.95200000000006 69.65530000000001 320.25600000000003 70.52720000000001 320.25600000000003 71.56720000000001C320.25600000000003 72.60710000000002 319.944 73.45890000000001 319.32000000000005 74.12330000000001C318.696 74.78740000000002 317.96700000000004 75.11940000000001 317.136 75.11940000000001C316.30400000000003 75.11940000000001 315.596 74.78740000000002 315.012 74.12330000000001C314.427 73.45890000000001 314.136 72.60310000000001 314.136 71.55470000000001C314.136 70.50750000000001 314.427 69.63510000000001 315.012 68.93970000000002ZM303.18 74.6512C302.692 75.0432 302.128 75.239 301.488 75.239C300.848 75.239 300.356 75.1149 300.012 74.86670000000001C299.668 74.61890000000001 299.496 74.26350000000001 299.496 73.79860000000001C299.496 72.9033 300.216 72.4552 301.656 72.4552L303.912 72.4552L303.912 73.0789C303.912 73.73530000000001 303.66799999999995 74.2587 303.17999999999995 74.6512ZM335.735 73.9428C334.91900000000004 74.79140000000001 333.879 75.2153 332.615 75.2153C331.831 75.2153 331.127 74.99119999999999 330.503 74.5424C329.87899999999996 74.0951 329.51099999999997 73.5189 329.399 72.815L338.807 72.815L338.807 70.8951C338.807 69.0235 338.187 67.5516 336.947 66.479C335.707 65.4072 334.199 64.8713 332.423 64.8713C330.647 64.8713 329.107 65.4713 327.803 66.6708C326.499 67.8711 325.847 69.4868 325.847 71.5188C325.847 73.5508 326.48699999999997 75.1709 327.767 76.3793C329.04699999999997 77.5877 330.667 78.1909 332.627 78.1909C334.587 78.1909 336.295 77.5035 337.75100000000003 76.1267ZM329.495 70.2472C329.591 69.51140000000001 329.935 68.92720000000001 330.527 68.49480000000001C331.11899999999997 68.06330000000001 331.771 67.8469 332.483 67.8469C333.195 67.8469 333.799 68.0552 334.295 68.4711C334.791 68.88730000000001 335.079 69.4792 335.159 70.2472Z " fill="#ffffff" transform="matrix(1,0,0,1,-268,-60)"></path></svg>