<svg id="SvgjsSvg1000" xmlns="http://www.w3.org/2000/svg" version="1.1" xmlns:xlink="http://www.w3.org/1999/xlink" xmlns:svgjs="http://svgjs.com/svgjs" width="32" height="39"><defs id="SvgjsDefs1001"></defs><path id="SvgjsPath1007" d="M256.729 60.5431C255.791 58.9193 253.95399999999998 58.1392 252.20899999999997 58.468C252.265 57.646800000000006 252.08499999999998 56.80030000000001 251.64299999999997 56.033100000000005C250.45499999999998 53.976600000000005 247.82599999999996 53.272600000000004 245.76999999999998 54.460100000000004C244.65699999999998 55.1015 243.94099999999997 56.16610000000001 243.706 57.33370000000001C242.577 56.95420000000001 241.297 57.04160000000001 240.185 57.68390000000001C239.072 58.32620000000001 238.356 59.39070000000001 238.121 60.558400000000006C236.99200000000002 60.1784 235.71200000000002 60.26630000000001 234.60000000000002 60.908100000000005C232.54300000000003 62.0955 231.83900000000003 64.72550000000001 233.026 66.7816C233.46900000000002 67.548 234.11200000000002 68.127 234.851 68.4896C233.694 69.83619999999999 233.451 71.81739999999999 234.389 73.4412C235.32600000000002 75.0654 237.16400000000002 75.8454 238.90800000000002 75.5167C238.853 76.3382 239.032 77.1848 239.47500000000002 77.9515C240.592 79.8868 242.98700000000002 80.6246 244.979 79.7148C244.949 80.49759999999999 245.131 81.2987 245.55200000000002 82.02759999999999C246.64600000000002 83.9237 248.967 84.66909999999999 250.93400000000003 83.8436C250.949 84.5426 251.13400000000001 85.2482 251.50900000000001 85.8973C252.69600000000003 87.9538 255.32600000000002 88.6581 257.382 87.4711C259.438 86.28370000000001 260.14300000000003 83.6546 258.956 81.59800000000001C258.581 80.94930000000001 258.06300000000005 80.43560000000001 257.46500000000003 80.07260000000001C259.163 78.78200000000001 259.67800000000005 76.40030000000002 258.583 74.50370000000001C258.16200000000003 73.77520000000001 257.56 73.21710000000002 256.86600000000004 72.85170000000001C258.65000000000003 71.58130000000001 259.20900000000006 69.13870000000001 258.09200000000004 67.2035C257.64900000000006 66.4367 257.00600000000003 65.85730000000001 256.266 65.4954C257.423 64.1489 257.66700000000003 62.167300000000004 256.72900000000004 60.5431ZM237.566 56.4622L235.267 55.4202L235.98499999999999 51.1976L233.63 50.7979L233.018 54.401199999999996L229.536 52.8238L228.55 55L236.58 58.6372Z " fill="#ffffff" transform="matrix(1,0,0,1,-228,-50)"></path></svg>