<svg id="SvgjsSvg1020" xmlns="http://www.w3.org/2000/svg" version="1.1" xmlns:xlink="http://www.w3.org/1999/xlink" xmlns:svgjs="http://svgjs.com/svgjs" width="175" height="60"><defs id="SvgjsDefs1021"></defs><path id="SvgjsPath1022" d="M649.425 5991.76C648.0659999999999 5992.54 646.367 5992.93 644.328 5992.93C642.289 5992.93 640.533 5992.18 639.06 5990.68C637.588 5989.18 636.852 5987.1900000000005 636.852 5984.700000000001C636.852 5982.210000000001 637.619 5980.200000000001 639.155 5978.670000000001C640.6899999999999 5977.150000000001 642.578 5976.390000000001 644.819 5976.390000000001C645.976 5976.390000000001 647.0519999999999 5976.590000000001 648.0469999999999 5976.980000000001C649.0409999999999 5977.370000000002 650.1299999999999 5978.080000000002 651.3129999999999 5979.1100000000015L654.3719999999998 5974.690000000001C651.5769999999999 5972.200000000002 648.2859999999998 5970.950000000002 644.4979999999998 5970.950000000002C640.7089999999998 5970.950000000002 637.4749999999998 5972.260000000002 634.7939999999999 5974.880000000002C632.1129999999998 5977.500000000002 630.7719999999998 5980.760000000002 630.7719999999998 5984.680000000002C630.7719999999998 5988.590000000002 632.0869999999999 5991.830000000002 634.7179999999998 5994.400000000002C637.3479999999998 5996.970000000002 640.6019999999999 5998.250000000003 644.4789999999998 5998.250000000003C649.1099999999998 5998.250000000003 652.7349999999998 5996.790000000003 655.3529999999998 5993.870000000003L655.3529999999998 5984.510000000003L649.4249999999998 5984.510000000003ZM703.269 5977.64L697.605 5977.64L697.605 6005.280000000001L703.269 6005.280000000001L703.269 5995.27C704.779 5997.26 706.774 5998.25 709.254 5998.25C711.7330000000001 5998.25 713.898 5997.25 715.748 5995.23C717.5980000000001 5993.219999999999 718.523 5990.709999999999 718.523 5987.719999999999C718.523 5984.719999999999 717.5980000000001 5982.24 715.748 5980.259999999999C713.898 5978.28 711.7890000000001 5977.299999999999 709.423 5977.299999999999C707.057 5977.299999999999 705.006 5978.159999999999 703.269 5979.9ZM692.81 5985C692.81 5982.33 692.029 5980.38 690.4689999999999 5979.15C688.9079999999999 5977.91 686.8939999999999 5977.299999999999 684.4269999999999 5977.299999999999C681.0039999999999 5977.299999999999 677.9579999999999 5978.2699999999995 675.29 5980.199999999999L677.8199999999999 5983.869999999999C678.5749999999999 5983.289999999999 679.4999999999999 5982.799999999999 680.5949999999999 5982.409999999999C681.6899999999999 5982.019999999999 682.728 5981.829999999999 683.7099999999999 5981.829999999999C685.9999999999999 5981.829999999999 687.146 5982.909999999999 687.146 5985.069999999999L687.146 5985.189999999999L682.9169999999999 5985.189999999999C680.2989999999999 5985.189999999999 678.2349999999999 5985.699999999999 676.7249999999999 5986.739999999999C675.2139999999999 5987.769999999999 674.459 5989.319999999999 674.459 5991.399999999999C674.459 5993.479999999999 675.189 5995.1399999999985 676.649 5996.379999999998C678.109 5997.629999999998 679.915 5998.249999999998 682.067 5998.249999999998C684.22 5998.249999999998 686.026 5997.329999999998 687.486 5995.499999999998L687.486 5997.949999999998L692.81 5997.949999999998ZM671.816 5982.62L671.778 5977.3C670.6460000000001 5977.320000000001 669.532 5977.62 668.437 5978.2C667.342 5978.78 666.429 5979.49 665.699 5980.32L665.699 5977.639999999999L660.035 5977.639999999999L660.035 5997.95L665.699 5997.95L665.699 5989.15C665.699 5987.19 666.115 5985.61 666.9449999999999 5984.41C667.776 5983.22 669.034 5982.62 670.7209999999999 5982.62ZM704.571 5983.7C705.49 5982.599999999999 706.616 5982.05 707.951 5982.05C709.285 5982.05 710.4300000000001 5982.610000000001 711.3870000000001 5983.72C712.3430000000001 5984.820000000001 712.822 5986.2 712.822 5987.83C712.822 5989.47 712.331 5990.8099999999995 711.349 5991.85C710.3670000000001 5992.900000000001 709.2220000000001 5993.42 707.913 5993.42C706.604 5993.42 705.49 5992.9 704.571 5991.85C703.652 5990.81 703.193 5989.46 703.193 5987.81C703.193 5986.160000000001 703.6519999999999 5984.79 704.571 5983.700000000001ZM685.957 5992.68C685.188 5993.3 684.301 5993.610000000001 683.295 5993.610000000001C682.288 5993.610000000001 681.514 5993.410000000001 680.972 5993.02C680.4309999999999 5992.63 680.161 5992.070000000001 680.161 5991.34C680.161 5989.93 681.2929999999999 5989.2300000000005 683.559 5989.2300000000005L687.108 5989.2300000000005L687.108 5990.21C687.108 5991.24 686.7239999999999 5992.07 685.957 5992.68ZM737.176 5991.57C735.892 5992.9 734.255 5993.57 732.267 5993.57C731.033 5993.57 729.926 5993.219999999999 728.9440000000001 5992.509999999999C727.9620000000001 5991.8099999999995 727.383 5990.9 727.2070000000001 5989.789999999999L742.0090000000001 5989.789999999999L742.0090000000001 5986.769999999999C742.0090000000001 5983.829999999999 741.0330000000001 5981.509999999998 739.0820000000001 5979.829999999999C737.1310000000001 5978.139999999999 734.7590000000001 5977.299999999999 731.9650000000001 5977.299999999999C729.1710000000002 5977.299999999999 726.7480000000002 5978.239999999999 724.6960000000001 5980.129999999999C722.6440000000001 5982.0199999999995 721.6190000000001 5984.5599999999995 721.6190000000001 5987.759999999999C721.6190000000001 5990.949999999999 722.6260000000001 5993.499999999999 724.6400000000001 5995.4C726.6530000000001 5997.299999999999 729.2020000000001 5998.25 732.2860000000001 5998.25C735.369 5998.25 738.056 5997.17 740.3470000000001 5995.01ZM727.358 5985.75C727.5089999999999 5984.6 728.05 5983.68 728.982 5983C729.913 5982.32 730.939 5981.98 732.059 5981.98C733.179 5981.98 734.13 5982.3099999999995 734.91 5982.959999999999C735.6899999999999 5983.619999999999 736.1429999999999 5984.549999999999 736.269 5985.749999999999Z " fill="#e8d4a8" transform="matrix(1,0,0,1,-568,-5950)"></path><path id="SvgjsPath1023" d="M612.876 5965.77C611.401 5963.21 608.51 5961.990000000001 605.766 5962.5C605.853 5961.21 605.5709999999999 5959.88 604.8739999999999 5958.67C603.0059999999999 5955.4400000000005 598.8689999999999 5954.33 595.6339999999999 5956.2C593.8839999999999 5957.21 592.7579999999999 5958.88 592.387 5960.72C590.611 5960.12 588.597 5960.26 586.847 5961.27C585.097 5962.280000000001 583.971 5963.950000000001 583.6 5965.790000000001C581.8240000000001 5965.1900000000005 579.811 5965.330000000001 578.061 5966.340000000001C574.825 5968.210000000001 573.717 5972.350000000001 575.585 5975.580000000001C576.2810000000001 5976.790000000001 577.293 5977.700000000001 578.456 5978.27C576.636 5980.39 576.254 5983.5 577.729 5986.06C579.2040000000001 5988.620000000001 582.095 5989.84 584.839 5989.330000000001C584.7520000000001 5990.620000000001 585.0340000000001 5991.950000000001 585.7310000000001 5993.160000000001C587.4890000000001 5996.200000000001 591.2560000000001 5997.360000000001 594.3910000000001 5995.930000000001C594.3430000000001 5997.160000000001 594.6290000000001 5998.420000000001 595.291 5999.5700000000015C597.013 6002.550000000001 600.6640000000001 6003.720000000001 603.759 6002.430000000001C603.782 6003.530000000002 604.075 6004.640000000001 604.664 6005.660000000001C606.532 6008.89 610.668 6010.000000000001 613.904 6008.130000000001C617.139 6006.260000000001 618.247 6002.130000000001 616.379 5998.890000000001C615.79 5997.870000000001 614.975 5997.060000000001 614.034 5996.490000000002C616.706 5994.460000000002 617.516 5990.710000000002 615.794 5987.730000000001C615.132 5986.590000000001 614.184 5985.710000000001 613.092 5985.130000000001C615.899 5983.130000000001 616.778 5979.290000000001 615.02 5976.250000000001C614.324 5975.040000000001 613.312 5974.130000000001 612.149 5973.560000000001C613.969 5971.440000000001 614.351 5968.3200000000015 612.876 5965.770000000001ZM582.728 5959.35L579.111 5957.71L580.24 5951.06L576.535 5950.4400000000005L575.572 5956.1L570.094 5953.620000000001L568.543 5957.050000000001L581.177 5962.770000000001Z " fill="#e8d4a8" transform="matrix(1,0,0,1,-568,-5950)"></path></svg>