<svg id="SvgjsSvg1008" xmlns="http://www.w3.org/2000/svg" version="1.1" xmlns:xlink="http://www.w3.org/1999/xlink" xmlns:svgjs="http://svgjs.com/svgjs" width="114" height="79"><defs id="SvgjsDefs1009"></defs><path id="SvgjsPath1010" d="M409.77 4418.65L386.114 4418.65L363.234 4451.61C358.58 4458.339999999999 356.253 4465.25 356.253 4472.36C356.253 4479.469999999999 358.64099999999996 4485.219999999999 363.428 4489.61C368.209 4494.009999999999 374.092 4496.21 381.073 4496.21C388.053 4496.21 393.87 4493.95 398.524 4489.42C403.178 4484.9 405.504 4478.7 405.504 4470.81C405.504 4462.92 401.88100000000003 4456.650000000001 394.646 4452ZM453.98 4452C461.21500000000003 4456.65 464.838 4462.92 464.838 4470.81C464.838 4478.700000000001 462.512 4484.900000000001 457.858 4489.42C453.204 4493.95 447.387 4496.21 440.407 4496.21C433.426 4496.21 427.543 4494.01 422.762 4489.61C417.975 4485.219999999999 415.587 4479.469999999999 415.587 4472.36C415.587 4465.25 417.914 4458.339999999999 422.568 4451.61L445.448 4418.65L469.104 4418.65Z " fill="#5fc79a" transform="matrix(1,0,0,1,-356,-4418)"></path></svg>