<svg id="SvgjsSvg1024" xmlns="http://www.w3.org/2000/svg" version="1.1" xmlns:xlink="http://www.w3.org/1999/xlink" xmlns:svgjs="http://svgjs.com/svgjs" width="62" height="50"><defs id="SvgjsDefs1025"></defs><path id="SvgjsPath1026" d="M311.158 6528.29C308.942 6529.2699999999995 306.557 6529.93 304.05400000000003 6530.23C306.60900000000004 6528.7 308.569 6526.28 309.49300000000005 6523.389999999999C307.10300000000007 6524.8099999999995 304.45700000000005 6525.839999999999 301.63900000000007 6526.389999999999C299.38200000000006 6523.99 296.1670000000001 6522.49 292.61000000000007 6522.49C285.7800000000001 6522.49 280.2410000000001 6528.0199999999995 280.2410000000001 6534.86C280.2410000000001 6535.82 280.3500000000001 6536.7699999999995 280.5620000000001 6537.67C270.28200000000015 6537.16 261.1660000000001 6532.2300000000005 255.0650000000001 6524.75C254.0000000000001 6526.57 253.3910000000001 6528.7 253.3910000000001 6530.97C253.3910000000001 6535.26 255.5740000000001 6539.05 258.8930000000001 6541.26C256.8670000000001 6541.2 254.95800000000008 6540.64 253.29100000000008 6539.72C253.29000000000008 6539.77 253.29000000000008 6539.820000000001 253.29000000000008 6539.87C253.29000000000008 6545.87 257.55300000000005 6550.86 263.2120000000001 6552C262.1750000000001 6552.28 261.08100000000013 6552.43 259.9530000000001 6552.43C259.15600000000006 6552.43 258.3800000000001 6552.360000000001 257.6260000000001 6552.21C259.2000000000001 6557.13 263.7680000000001 6560.7 269.18000000000006 6560.8C264.9460000000001 6564.12 259.61500000000007 6566.1 253.81800000000007 6566.1C252.82000000000008 6566.1 251.83500000000006 6566.04 250.86700000000008 6565.92C256.3420000000001 6569.4400000000005 262.84400000000005 6571.4800000000005 269.82900000000006 6571.4800000000005C292.5810000000001 6571.4800000000005 305.02200000000005 6552.63 305.02200000000005 6536.290000000001C305.02200000000005 6535.750000000001 305.011 6535.220000000001 304.987 6534.6900000000005C307.404 6532.950000000001 309.502 6530.77 311.158 6528.290000000001Z " fill="#ffffff" transform="matrix(1,0,0,1,-250,-6522)"></path></svg>